<?xml version="1.0" encoding="UTF-8" standalone="no"?>
<!-- Created with Inkscape (http://www.inkscape.org/) -->

<svg
   width="300mm"
   height="20mm"
   viewBox="0 0 300 20"
   version="1.1"
   id="svg5"
   inkscape:version="1.2.2 (732a01da63, 2022-12-09, custom)"
   sodipodi:docname="texto_mis_notas.svg"
   xmlns:inkscape="http://www.inkscape.org/namespaces/inkscape"
   xmlns:sodipodi="http://sodipodi.sourceforge.net/DTD/sodipodi-0.dtd"
   xmlns="http://www.w3.org/2000/svg"
   xmlns:svg="http://www.w3.org/2000/svg">
  <sodipodi:namedview
     id="namedview7"
     pagecolor="#ffffff"
     bordercolor="#000000"
     borderopacity="0.25"
     inkscape:showpageshadow="2"
     inkscape:pageopacity="0.0"
     inkscape:pagecheckerboard="false"
     inkscape:deskcolor="#d1d1d1"
     inkscape:document-units="mm"
     showgrid="false"
     inkscape:zoom="0.53606888"
     inkscape:cx="622.12154"
     inkscape:cy="61.559253"
     inkscape:window-width="1446"
     inkscape:window-height="752"
     inkscape:window-x="282"
     inkscape:window-y="114"
     inkscape:window-maximized="0"
     inkscape:current-layer="layer1" />
  <defs
     id="defs2" />
  <g
     inkscape:label="Texto"
     inkscape:groupmode="layer"
     id="layer1"
     transform="translate(-32.322657,-88.643052)"
     style="display:inline;fill:#000000;fill-opacity:1">
    <g
       aria-label="Mis notas de FreeCAD"
       transform="scale(0.96443045,1.0368814)"
       id="text2714"
       style="font-weight:bold;font-size:22.1183px;font-family:'Liberation Sans';-inkscape-font-specification:'Liberation Sans Bold';text-align:center;letter-spacing:0.00264583px;text-anchor:middle;stroke:#000000;stroke-width:0.346141;stroke-linecap:round">
      <path
         d="m 61.183186,103.03992 1.825192,-9.37436 q 0.107999,-0.550798 0.377998,-1.630793 0.269999,-1.090795 0.421198,-1.619993 -1.166395,2.937587 -1.522793,3.682784 l -2.321989,5.054377 h -2.35439 l -0.377998,-5.054377 q -0.0756,-1.079995 -0.108,-3.682784 -0.302398,2.37599 -0.475197,3.250786 l -1.825192,9.37436 h -2.375989 l 2.829587,-14.569137 h 3.747583 l 0.410398,5.389176 0.0216,0.507597 q 0,0.464398 -0.0972,1.987191 0.550798,-1.609192 0.917996,-2.483988 l 2.516389,-5.399976 h 3.617983 l -2.829587,14.569137 z"
         style="font-style:italic;font-family:'Liberation Mono';-inkscape-font-specification:'Liberation Mono Bold Italic';letter-spacing:0.301625px;word-spacing:0.669397px;direction:rtl;stroke-width:0.346142"
         id="path5798" />
      <path
         d="m 73.926355,100.98793 h 3.812383 l -0.399598,2.05199 H 66.22599 l 0.399598,-2.05199 h 4.265981 l 1.468793,-7.581569 h -3.131986 l 0.399599,-2.051991 h 6.166772 z m -0.755997,-11.73955 0.431998,-2.23559 h 3.034787 l -0.431998,2.23559 z"
         style="font-style:italic;font-family:'Liberation Mono';-inkscape-font-specification:'Liberation Mono Bold Italic';letter-spacing:0.301625px;word-spacing:0.669397px;direction:rtl;stroke-width:0.346142"
         id="path5800" />
      <path
         d="m 85.179131,103.25592 q -2.419189,0 -3.553184,-0.7668 -1.133995,-0.7668 -1.231194,-2.36519 l 2.753987,-0.399598 q 0.054,0.831598 0.539998,1.177198 0.496797,0.3456 1.879191,0.3456 1.285194,0 1.922391,-0.324 0.647997,-0.324 0.777597,-1.015199 l 0.0216,-0.248399 q 0,-0.431998 -0.421198,-0.712796 -0.421199,-0.280799 -1.382394,-0.485998 -2.14919,-0.442798 -2.959187,-0.799197 -0.809996,-0.356398 -1.241994,-0.907195 -0.431998,-0.550798 -0.431998,-1.360794 0,-1.220395 0.691197,-2.21399 0.691197,-1.004396 1.976391,-1.522793 1.285194,-0.529198 3.034786,-0.529198 2.09519,0 3.196785,0.809996 1.112395,0.809997 1.133995,2.34359 l -2.743187,0.280799 q 0,-0.745197 -0.453598,-1.079996 -0.442798,-0.334798 -1.522793,-0.334798 -1.079995,0 -1.673993,0.280799 -0.593997,0.269998 -0.723596,0.917996 l -0.0216,0.226798 q 0,0.388799 0.377998,0.647998 0.388798,0.259198 1.209595,0.421198 l 1.155594,0.280798 q 1.511993,0.323999 2.22479,0.691197 0.712797,0.367199 1.090795,0.917996 0.377998,0.539998 0.377998,1.339194 0,1.285194 -0.734396,2.300394 -0.734397,1.00439 -2.105991,1.54439 -1.360793,0.54 -3.164385,0.54 z"
         style="font-style:italic;font-family:'Liberation Mono';-inkscape-font-specification:'Liberation Mono Bold Italic';letter-spacing:0.301625px;word-spacing:0.669397px;direction:rtl;stroke-width:0.346142"
         id="path5802" />
      <path
         d="m 115.24445,103.03992 1.29599,-6.685173 q 0.162,-0.799196 0.162,-1.371593 0,-0.809997 -0.3456,-1.187995 -0.3456,-0.388798 -1.09079,-0.388798 -1.0908,0 -1.95479,0.928796 -0.8532,0.917995 -1.1664,2.440788 l -1.22039,6.263975 h -3.03479 l 1.76039,-9.071962 q 0.3564,-1.792792 0.4212,-2.613588 h 2.89439 q 0,0.172799 -0.0972,0.961196 -0.0972,0.777596 -0.2052,1.360794 h 0.0432 q 1.65239,-2.548789 4.24438,-2.548789 2.92679,0 2.92679,2.948387 0,0.701997 -0.162,1.544393 l -1.4472,7.419569 z"
         style="font-style:italic;font-family:'Liberation Mono';-inkscape-font-specification:'Liberation Mono Bold Italic';letter-spacing:0.301625px;word-spacing:0.669397px;direction:rtl;stroke-width:0.346142"
         id="path5804" />
      <path
         d="m 126.46482,103.25592 q -2.24639,0 -3.42358,-1.1232 -1.1664,-1.12319 -1.1664,-3.229184 0,-1.987191 0.8532,-3.887983 0.86399,-1.900791 2.42999,-2.883586 1.56599,-0.993596 3.72598,-0.993596 4.65478,0 4.65478,4.136381 0,0.820797 -0.2052,1.911592 -0.5616,2.905186 -2.34359,4.492776 -1.78199,1.5768 -4.52518,1.5768 z m 3.90958,-7.937968 q 0,-1.090795 -0.44279,-1.587593 -0.4428,-0.507597 -1.404,-0.507597 -1.15559,0 -1.88999,0.712796 -0.7344,0.701997 -1.16639,2.24639 -0.432,1.544393 -0.432,2.775588 0,2.224794 1.79279,2.224794 1.17719,0 1.92239,-0.7236 0.7452,-0.723598 1.1772,-2.311191 0.44279,-1.598393 0.44279,-2.829587 z"
         style="font-style:italic;font-family:'Liberation Mono';-inkscape-font-specification:'Liberation Mono Bold Italic';letter-spacing:0.301625px;word-spacing:0.669397px;direction:rtl;stroke-width:0.346142"
         id="path5806" />
      <path
         d="M 138.90559,93.406361 H 137.102 l 0.3996,-2.051991 h 1.95479 l 1.5444,-3.045586 h 1.90079 l -0.594,3.045586 h 4.15798 l -0.3996,2.051991 h -4.15798 l -1.11239,5.723974 q -0.1188,0.647997 -0.1188,0.896395 0,0.5832 0.38879,0.8424 0.3888,0.2484 1.2312,0.2484 1.32839,0 2.80799,-0.2916 l -0.3888,2.00879 q -0.4212,0.0648 -0.8316,0.1296 -0.3996,0.0648 -0.83159,0.108 -0.4212,0.054 -0.8964,0.0756 -0.4644,0.0324 -1.0152,0.0324 -1.74959,0 -2.65678,-0.6156 -0.9072,-0.6156 -0.9072,-1.94399 0,-0.3132 0.054,-0.680399 0.054,-0.367198 1.27439,-6.53397 z"
         style="font-style:italic;font-family:'Liberation Mono';-inkscape-font-specification:'Liberation Mono Bold Italic';letter-spacing:0.301625px;word-spacing:0.669397px;direction:rtl;stroke-width:0.346142"
         id="path5808" />
      <path
         d="m 151.76756,103.25592 q -1.4472,0 -2.23559,-0.6696 -0.7776,-0.6696 -0.7776,-1.94399 0,-0.4212 0.0972,-0.907198 0.7344,-3.682783 5.23798,-3.736783 l 2.41919,-0.0432 0.108,-0.593997 q 0.108,-0.518398 0.108,-0.907196 0,-1.349994 -1.2636,-1.349994 -0.7668,0 -1.22039,0.388798 -0.4536,0.388799 -0.7236,1.263595 l -3.13199,-0.1512 q 1.2204,-3.466784 5.58358,-3.466784 1.86839,0 2.82959,0.788396 0.97199,0.777597 0.97199,2.30039 0,0.496798 -0.1188,1.123195 l -0.82079,4.233581 q -0.1188,0.593997 -0.1188,0.917997 0,0.3996 0.162,0.6048 0.1728,0.20519 0.58319,0.20519 0.3456,0 0.6804,-0.0648 l -0.3132,1.64159 q -0.2808,0.0648 -0.5076,0.1188 -0.2268,0.054 -0.45359,0.0864 -0.216,0.0324 -0.4644,0.054 -0.2484,0.0216 -0.5724,0.0216 -1.02599,0 -1.47959,-0.4428 -0.4536,-0.4536 -0.4536,-1.3284 l 0.0216,-0.44279 h -0.0648 q -0.9288,1.22039 -1.91159,1.76039 -0.9828,0.54 -2.17079,0.54 z m 4.40638,-5.626778 -1.4472,0.0216 q -1.13399,0.0216 -1.67399,0.302399 -0.54,0.280799 -0.79919,0.896396 -0.2484,0.604797 -0.2484,1.231194 0,1.0584 1.03679,1.0584 1.0584,0 1.92239,-0.8424 0.864,-0.853197 1.1016,-2.073591 z"
         style="font-style:italic;font-family:'Liberation Mono';-inkscape-font-specification:'Liberation Mono Bold Italic';letter-spacing:0.301625px;word-spacing:0.669397px;direction:rtl;stroke-width:0.346142"
         id="path5810" />
      <path
         d="m 167.29712,103.25592 q -2.41919,0 -3.55319,-0.7668 -1.13399,-0.7668 -1.23119,-2.36519 l 2.75399,-0.399598 q 0.054,0.831598 0.53999,1.177198 0.4968,0.3456 1.8792,0.3456 1.28519,0 1.92239,-0.324 0.64799,-0.324 0.77759,-1.015199 l 0.0216,-0.248399 q 0,-0.431998 -0.42119,-0.712796 -0.4212,-0.280799 -1.3824,-0.485998 -2.14919,-0.442798 -2.95919,-0.799197 -0.80999,-0.356398 -1.24199,-0.907195 -0.432,-0.550798 -0.432,-1.360794 0,-1.220395 0.6912,-2.21399 0.6912,-1.004396 1.97639,-1.522793 1.28519,-0.529198 3.03479,-0.529198 2.09519,0 3.19678,0.809996 1.1124,0.809997 1.134,2.34359 l -2.74319,0.280799 q 0,-0.745197 -0.4536,-1.079996 -0.4428,-0.334798 -1.52279,-0.334798 -1.08,0 -1.67399,0.280799 -0.594,0.269998 -0.7236,0.917996 l -0.0216,0.226798 q 0,0.388799 0.378,0.647998 0.3888,0.259198 1.20959,0.421198 l 1.1556,0.280798 q 1.51199,0.323999 2.22479,0.691197 0.71279,0.367199 1.09079,0.917996 0.378,0.539998 0.378,1.339194 0,1.285194 -0.7344,2.300394 -0.73439,1.00439 -2.10599,1.54439 -1.36079,0.54 -3.16438,0.54 z"
         style="font-style:italic;font-family:'Liberation Mono';-inkscape-font-specification:'Liberation Mono Bold Italic';letter-spacing:0.301625px;word-spacing:0.669397px;direction:rtl;stroke-width:0.346142"
         id="path5812" />
      <path
         d="m 197.28683,103.03992 v -0.0864 q 0,-0.2376 0.0756,-0.8748 0.0756,-0.6372 0.1296,-0.93959 h -0.0432 q -0.7344,1.07999 -1.67399,1.59839 -0.9288,0.5184 -2.14919,0.5184 -1.54439,0 -2.37599,-1.0368 -0.8208,-1.04759 -0.8208,-2.948386 0,-1.403993 0.4428,-3.023986 0.4428,-1.619993 1.188,-2.753988 0.75599,-1.133994 1.77119,-1.727992 1.02599,-0.604797 2.26799,-0.604797 1.16639,0 1.92239,0.539998 0.75599,0.539997 0.99359,1.522793 h 0.0216 l 0.3456,-1.922392 0.8316,-4.28758 h 3.03478 l -2.61358,13.47834 q -0.1296,0.6372 -0.4104,2.54879 z m 1.1772,-7.484369 q 0,-1.144795 -0.4536,-1.738792 -0.4536,-0.593997 -1.2312,-0.593997 -0.95039,0 -1.65239,0.788396 -0.702,0.777596 -1.11239,2.28959 -0.3996,1.511993 -0.3996,2.656788 0,2.224794 1.58759,2.224794 0.6696,0 1.2852,-0.4752 0.62639,-0.486 1.09079,-1.382396 0.4644,-0.896396 0.7128,-2.18159 0.1728,-0.896396 0.1728,-1.587593 z"
         style="font-style:italic;font-family:'Liberation Mono';-inkscape-font-specification:'Liberation Mono Bold Italic';letter-spacing:0.301625px;word-spacing:0.669397px;direction:rtl;stroke-width:0.346142"
         id="path5814" />
      <path
         d="m 208.75561,103.25592 q -2.23559,0 -3.45599,-1.1232 -1.22039,-1.13399 -1.22039,-3.250784 0,-1.360794 0.4536,-2.840387 0.4644,-1.490393 1.41479,-2.624388 0.9504,-1.133995 2.28959,-1.706393 1.3392,-0.572397 2.91599,-0.572397 2.12759,0 3.22918,1.166395 1.1016,1.166394 1.1016,3.337185 0,0.950395 -0.216,2.05199 l -0.0108,0.0864 h -7.92716 q -0.108,0.539997 -0.108,1.069195 0,1.155594 0.55079,1.771194 0.5508,0.6048 1.5336,0.6048 0.83159,0 1.50119,-0.3456 0.6804,-0.3564 1.0152,-1.047598 l 2.80798,0.248398 q -0.89639,1.52279 -2.42999,2.35439 -1.53359,0.8208 -3.44518,0.8208 z m 1.98719,-10.205958 q -1.11239,0 -1.92239,0.755997 -0.7992,0.745197 -1.1016,2.073591 h 4.96798 l 0.0432,-0.615598 q 0,-1.101595 -0.5508,-1.652392 -0.55079,-0.561598 -1.43639,-0.561598 z"
         style="font-style:italic;font-family:'Liberation Mono';-inkscape-font-specification:'Liberation Mono Bold Italic';letter-spacing:0.301625px;word-spacing:0.669397px;direction:rtl;stroke-width:0.346142"
         id="path5816" />
      <path
         d="m 237.20093,90.933172 -0.81,4.147181 h 6.70677 l -0.47519,2.462389 h -6.70677 l -1.0692,5.497178 h -3.18598 l 2.82958,-14.569137 h 10.14116 l -0.4752,2.462389 z"
         style="font-style:italic;font-family:'Liberation Mono';-inkscape-font-specification:'Liberation Mono Bold Italic';letter-spacing:0.301625px;word-spacing:0.669397px;direction:rtl;stroke-width:0.346142"
         id="path5818" />
      <path
         d="m 256.88847,93.881559 q -1.15559,-0.205199 -2.24639,-0.205199 -1.67399,0 -2.91599,1.263594 -1.24199,1.263594 -1.65239,3.369584 l -0.91799,4.730382 h -3.02399 l 1.46879,-7.570769 q 0.27,-1.468793 0.27,-3.121185 l -0.0324,-0.993596 h 2.92679 q 0.0648,0.842396 0.0648,1.371594 0,0.593997 -0.0432,1.090795 h 0.0432 q 0.82079,-1.468793 1.86839,-2.073591 1.04759,-0.604797 2.49479,-0.604797 1.14479,0 2.19239,0.183599 z"
         style="font-style:italic;font-family:'Liberation Mono';-inkscape-font-specification:'Liberation Mono Bold Italic';letter-spacing:0.301625px;word-spacing:0.669397px;direction:rtl;stroke-width:0.346142"
         id="path5820" />
      <path
         d="m 263.72407,103.25592 q -2.23559,0 -3.45599,-1.1232 -1.22039,-1.13399 -1.22039,-3.250784 0,-1.360794 0.4536,-2.840387 0.4644,-1.490393 1.41479,-2.624388 0.9504,-1.133995 2.28959,-1.706393 1.3392,-0.572397 2.91599,-0.572397 2.12759,0 3.22918,1.166395 1.1016,1.166394 1.1016,3.337185 0,0.950395 -0.216,2.05199 l -0.0108,0.0864 h -7.92716 q -0.108,0.539997 -0.108,1.069195 0,1.155594 0.55079,1.771194 0.5508,0.6048 1.5336,0.6048 0.83159,0 1.50119,-0.3456 0.6804,-0.3564 1.0152,-1.047598 l 2.80798,0.248398 q -0.89639,1.52279 -2.42999,2.35439 -1.53359,0.8208 -3.44518,0.8208 z m 1.98719,-10.205958 q -1.11239,0 -1.92239,0.755997 -0.7992,0.745197 -1.1016,2.073591 h 4.96798 l 0.0432,-0.615598 q 0,-1.101595 -0.5508,-1.652392 -0.55079,-0.561598 -1.43639,-0.561598 z"
         style="font-style:italic;font-family:'Liberation Mono';-inkscape-font-specification:'Liberation Mono Bold Italic';letter-spacing:0.301625px;word-spacing:0.669397px;direction:rtl;stroke-width:0.346142"
         id="path5822" />
      <path
         d="m 277.29884,103.25592 q -2.23559,0 -3.45599,-1.1232 -1.22039,-1.13399 -1.22039,-3.250784 0,-1.360794 0.4536,-2.840387 0.46439,-1.490393 1.41479,-2.624388 0.9504,-1.133995 2.28959,-1.706393 1.33919,-0.572397 2.91599,-0.572397 2.12759,0 3.22918,1.166395 1.1016,1.166394 1.1016,3.337185 0,0.950395 -0.216,2.05199 l -0.0108,0.0864 h -7.92717 q -0.108,0.539997 -0.108,1.069195 0,1.155594 0.5508,1.771194 0.5508,0.6048 1.53359,0.6048 0.8316,0 1.5012,-0.3456 0.68039,-0.3564 1.01519,-1.047598 l 2.80799,0.248398 q -0.8964,1.52279 -2.42999,2.35439 -1.53359,0.8208 -3.44518,0.8208 z m 1.98719,-10.205958 q -1.1124,0 -1.92239,0.755997 -0.7992,0.745197 -1.1016,2.073591 h 4.96798 l 0.0432,-0.615598 q 0,-1.101595 -0.5508,-1.652392 -0.5508,-0.561598 -1.43639,-0.561598 z"
         style="font-style:italic;font-family:'Liberation Mono';-inkscape-font-specification:'Liberation Mono Bold Italic';letter-spacing:0.301625px;word-spacing:0.669397px;direction:rtl;stroke-width:0.346142"
         id="path5824" />
      <path
         d="m 289.4588,97.791141 q 0,2.959189 2.25719,2.959189 1.77119,0 3.11038,-2.635191 l 2.84039,0.561598 q -2.35439,4.579183 -6.46917,4.579183 -2.48399,0 -3.74758,-1.2744 -1.2636,-1.28519 -1.2636,-3.790781 0,-1.166395 0.2592,-2.505589 1.46879,-7.441166 7.58157,-7.441166 4.04998,0 4.54678,4.201181 l -3.07799,0.712797 q -0.0972,-1.155595 -0.594,-1.781992 -0.4968,-0.626397 -1.31759,-0.626397 -1.2636,0 -2.17079,0.928796 -0.8964,0.917995 -1.4256,2.743187 -0.52919,1.825192 -0.52919,3.369585 z"
         style="font-style:italic;font-family:'Liberation Mono';-inkscape-font-specification:'Liberation Mono Bold Italic';letter-spacing:0.301625px;word-spacing:0.669397px;direction:rtl;stroke-width:0.346142"
         id="path5826" />
      <path
         d="m 311.00393,103.03992 h -3.17519 l -0.3024,-3.563987 h -4.92477 l -1.6848,3.563987 h -3.18598 l 7.61396,-14.569137 h 3.71519 z m -4.17958,-12.603546 q -0.1728,0.442798 -0.5076,1.177195 -0.324,0.734397 -2.58119,5.464775 h 3.58559 l -0.3672,-4.103981 -0.1188,-2.15999 z"
         style="font-style:italic;font-family:'Liberation Mono';-inkscape-font-specification:'Liberation Mono Bold Italic';letter-spacing:0.301625px;word-spacing:0.669397px;direction:rtl;stroke-width:0.346142"
         id="path5828" />
      <path
         d="m 317.31031,103.03992 h -4.54678 l 2.82959,-14.569137 h 3.89878 q 5.89678,0 5.89678,4.967978 0,1.673992 -0.5832,3.607183 -0.5832,1.922391 -1.64159,3.272386 -1.0476,1.33919 -2.53799,2.03039 -1.49039,0.6912 -3.31559,0.6912 z m 4.82758,-9.169161 q 0,-1.555193 -0.79919,-2.24639 -0.7884,-0.691197 -2.37599,-0.691197 h -0.6588 l -1.87919,9.644358 h 1.10159 q 3.44519,0 4.41718,-4.935579 0.1944,-1.004396 0.1944,-1.771192 z"
         style="font-style:italic;font-family:'Liberation Mono';-inkscape-font-specification:'Liberation Mono Bold Italic';letter-spacing:0.301625px;word-spacing:0.669397px;direction:rtl;stroke-width:0.346142"
         id="path5830" />
    </g>
  </g>
  <g
     inkscape:groupmode="layer"
     id="layer2"
     inkscape:label="Decorado"
     style="display:inline">
    <path
       sodipodi:type="star"
       style="fill:#000000;fill-opacity:1;stroke:#000000;stroke-width:0.264999;stroke-linecap:round"
       id="path4959"
       inkscape:flatsided="false"
       sodipodi:sides="5"
       sodipodi:cx="10.651203"
       sodipodi:cy="4.9709234"
       sodipodi:r1="6.2535067"
       sodipodi:r2="3.1267529"
       sodipodi:arg1="0.95429277"
       sodipodi:arg2="1.5826113"
       inkscape:rounded="0"
       inkscape:randomized="0"
       d="M 14.266893,10.073191 10.614262,8.097458 6.9159679,9.986336 7.6662764,5.9019422 4.7270112,2.9683513 8.8433586,2.41979 l 1.8817274,-3.7019368 1.793735,3.7453643 4.102237,0.6456682 -3.007759,2.8633236 z"
       inkscape:transform-center-x="-0.022831062"
       inkscape:transform-center-y="-0.57540138"
       transform="translate(1.1086922,5.6320255)" />
    <path
       sodipodi:type="star"
       style="fill:#000000;fill-opacity:1;stroke:#000000;stroke-width:0.264999;stroke-linecap:round"
       id="path4961"
       inkscape:flatsided="false"
       sodipodi:sides="5"
       sodipodi:cx="10.651203"
       sodipodi:cy="4.9709234"
       sodipodi:r1="6.2535067"
       sodipodi:r2="3.1267529"
       sodipodi:arg1="0.95429277"
       sodipodi:arg2="1.5826113"
       inkscape:rounded="0"
       inkscape:randomized="0"
       d="M 14.266893,10.073191 10.614262,8.097458 6.9159679,9.986336 7.6662764,5.9019422 4.7270112,2.9683513 8.8433586,2.41979 l 1.8817274,-3.7019368 1.793735,3.7453643 4.102237,0.6456682 -3.007759,2.8633236 z"
       inkscape:transform-center-x="-0.022831062"
       inkscape:transform-center-y="-0.57540138"
       transform="translate(278.70861,5.6320255)" />
  </g>
</svg>
