999
dxfrw 0.6.3
  0
SECTION
  2
HEADER
  9
$ACADVER
  1
AC1021
  9
$DWGCODEPAGE
  3
ANSI_1252
  9
$INSBASE
 10
0
 20
0
 30
0
  9
$EXTMIN
 10
27.16136007190143
 20
54.85918591615393
 30
0
  9
$EXTMAX
 10
295.2956692381035
 20
178.858
 30
0
  9
$LIMMIN
 10
0
 20
0
  9
$LIMMAX
 10
420
 20
297
  9
$ORTHOMODE
 70
    0
  9
$REGENMODE
 70
    1
  9
$FILLMODE
 70
    1
  9
$QTEXTMODE
 70
    0
  9
$MIRRTEXT
 70
    0
  9
$LTSCALE
 40
1
  9
$ATTMODE
 70
    0
  9
$TEXTSIZE
 40
2.5
  9
$TRACEWID
 40
15.68
  9
$TEXTSTYLE
  7
STANDARD
  9
$CLAYER
  8
0
  9
$CELTYPE
  6
BYLAYER
  9
$CECOLOR
 62
  256
  9
$CELTSCALE
 40
1
  9
$DISPSILH
 70
    0
  9
$DIMSCALE
 40
1
  9
$DIMASZ
 40
2.5
  9
$DIMEXO
 40
0.625
  9
$DIMDLI
 40
3.75
  9
$DIMRND
 40
0
  9
$DIMDLE
 40
0
  9
$DIMEXE
 40
1.25
  9
$DIMTP
 40
0
  9
$DIMTM
 40
0
  9
$DIMTXT
 40
2.5
  9
$DIMCEN
 40
2.5
  9
$DIMTSZ
 40
0
  9
$DIMTOL
 70
    0
  9
$DIMLIM
 70
    0
  9
$DIMTIH
 70
    0
  9
$DIMTOH
 70
    0
  9
$DIMSE1
 70
    0
  9
$DIMSE2
 70
    0
  9
$DIMTAD
 70
    1
  9
$DIMZIN
 70
    8
  9
$DIMBLK
  1

  9
$DIMASO
 70
    1
  9
$DIMSHO
 70
    1
  9
$DIMPOST
  1

  9
$DIMAPOST
  1

  9
$DIMALT
 70
    0
  9
$DIMALTD
 70
    3
  9
$DIMALTF
 40
0.03937
  9
$DIMLFAC
 40
1
  9
$DIMTOFL
 70
    1
  9
$DIMTVP
 40
0
  9
$DIMTIX
 70
    0
  9
$DIMSOXD
 70
    0
  9
$DIMSAH
 70
    0
  9
$DIMBLK1
  1

  9
$DIMBLK2
  1

  9
$DIMSTYLE
  2
STANDARD
  9
$DIMCLRD
 70
    0
  9
$DIMCLRE
 70
    0
  9
$DIMCLRT
 70
    0
  9
$DIMTFAC
 40
1
  9
$DIMGAP
 40
0.625
  9
$DIMJUST
 70
    0
  9
$DIMSD1
 70
    0
  9
$DIMSD2
 70
    0
  9
$DIMTOLJ
 70
    0
  9
$DIMTZIN
 70
    8
  9
$DIMALTZ
 70
    0
  9
$DIMALTTZ
 70
    0
  9
$DIMUPT
 70
    0
  9
$DIMDEC
 70
    2
  9
$DIMTDEC
 70
    2
  9
$DIMALTU
 70
    2
  9
$DIMALTTD
 70
    3
  9
$DIMTXSTY
  7
STANDARD
  9
$DIMAUNIT
 70
    0
  9
$DIMADEC
 70
    0
  9
$DIMALTRND
 40
0
  9
$DIMAZIN
 70
    0
  9
$DIMDSEP
 70
   44
  9
$DIMATFIT
 70
    3
  9
$DIMFRAC
 70
    0
  9
$DIMLDRBLK
  1
STANDARD
  9
$DIMLUNIT
 70
    2
  9
$DIMLWD
 70
   -2
  9
$DIMLWE
 70
   -2
  9
$DIMTMOVE
 70
    0
  9
$DIMFXL
 40
1
  9
$DIMFXLON
 70
    0
  9
$DIMJOGANG
 40
0.7854
  9
$DIMTFILL
 70
    0
  9
$DIMTFILLCLR
 70
    0
  9
$DIMARCSYM
 70
    0
  9
$DIMLTYPE
  6

  9
$DIMLTEX1
  6

  9
$DIMLTEX2
  6

  9
$LUNITS
 70
    2
  9
$LUPREC
 70
    4
  9
$SKETCHINC
 40
1
  9
$FILLETRAD
 40
0
  9
$AUNITS
 70
    0
  9
$AUPREC
 70
    2
  9
$MENU
  1
.
  9
$ELEVATION
 40
0
  9
$PELEVATION
 40
0
  9
$THICKNESS
 40
0
  9
$LIMCHECK
 70
    0
  9
$CHAMFERA
 40
0
  9
$CHAMFERB
 40
0
  9
$CHAMFERC
 40
0
  9
$CHAMFERD
 40
0
  9
$SKPOLY
 70
    0
  9
$USRTIMER
 70
    1
  9
$ANGBASE
 50
0
  9
$ANGDIR
 70
    0
  9
$PDMODE
 70
   34
  9
$PDSIZE
 40
0
  9
$PLINEWID
 40
0
  9
$SPLFRAME
 70
    0
  9
$SPLINETYPE
 70
    2
  9
$SPLINESEGS
 70
    8
  9
$HANDSEED
  5
20000
  9
$SURFTAB1
 70
    6
  9
$SURFTAB2
 70
    6
  9
$SURFTYPE
 70
    6
  9
$SURFU
 70
    6
  9
$SURFV
 70
    6
  9
$UCSBASE
  2

  9
$UCSNAME
  2

  9
$UCSORG
 10
0
 20
0
 30
0
  9
$UCSXDIR
 10
1
 20
0
 30
0
  9
$UCSYDIR
 10
0
 20
1
 30
0
  9
$UCSORTHOREF
  2

  9
$UCSORTHOVIEW
 70
    0
  9
$UCSORGTOP
 10
0
 20
0
 30
0
  9
$UCSORGBOTTOM
 10
0
 20
0
 30
0
  9
$UCSORGLEFT
 10
0
 20
0
 30
0
  9
$UCSORGRIGHT
 10
0
 20
0
 30
0
  9
$UCSORGFRONT
 10
0
 20
0
 30
0
  9
$UCSORGBACK
 10
0
 20
0
 30
0
  9
$PUCSBASE
  2

  9
$PUCSNAME
  2

  9
$PUCSORG
 10
0
 20
0
 30
0
  9
$PUCSXDIR
 10
1
 20
0
 30
0
  9
$PUCSYDIR
 10
0
 20
1
 30
0
  9
$PUCSORTHOREF
  2

  9
$PUCSORTHOVIEW
 70
    0
  9
$PUCSORGTOP
 10
0
 20
0
 30
0
  9
$PUCSORGBOTTOM
 10
0
 20
0
 30
0
  9
$PUCSORGLEFT
 10
0
 20
0
 30
0
  9
$PUCSORGRIGHT
 10
0
 20
0
 30
0
  9
$PUCSORGFRONT
 10
0
 20
0
 30
0
  9
$PUCSORGBACK
 10
0
 20
0
 30
0
  9
$USERI1
 70
    0
  9
$USERI2
 70
    0
  9
$USERI3
 70
    0
  9
$USERI4
 70
    0
  9
$USERI5
 70
    0
  9
$USERR1
 40
0
  9
$USERR2
 40
0
  9
$USERR3
 40
0
  9
$USERR4
 40
0
  9
$USERR5
 40
0
  9
$WORLDVIEW
 70
    1
  9
$SHADEDGE
 70
    3
  9
$SHADEDIF
 70
   70
  9
$TILEMODE
 70
    1
  9
$MAXACTVP
 70
   64
  9
$PINSBASE
 10
0
 20
0
 30
0
  9
$PLIMCHECK
 70
    0
  9
$PEXTMIN
 10
0
 20
0
 30
0
  9
$PEXTMAX
 10
50
 20
50
 30
50
  9
$GRIDMODE
 70
    0
  9
$SNAPSTYLE
 70
    0
  9
$PLIMMIN
 10
0
 20
0
  9
$PLIMMAX
 10
210
 20
297
  9
$UNITMODE
 70
    0
  9
$VISRETAIN
 70
    1
  9
$PLINEGEN
 70
    0
  9
$PSLTSCALE
 70
    1
  9
$TREEDEPTH
 70
 3020
  9
$CMLSTYLE
  2
STANDARD
  9
$CMLJUST
 70
    0
  9
$CMLSCALE
 40
20
  9
$PROXYGRAPHICS
 70
    1
  9
$MEASUREMENT
 70
    1
  9
$CELWEIGHT
370
   -1
  9
$ENDCAPS
280
    0
  9
$JOINSTYLE
280
    0
  9
$LWDISPLAY
290
    0
  9
$INSUNITS
 70
    4
  9
$HYPERLINKBASE
  1

  9
$STYLESHEET
  1

  9
$XEDIT
290
    1
  9
$CEPSNTYPE
380
    0
  9
$PSTYLEMODE
290
    1
  9
$EXTNAMES
290
    1
  9
$PSVPSCALE
 40
1
  9
$OLESTARTUP
290
    0
  9
$SORTENTS
280
  127
  9
$INDEXCTL
280
    0
  9
$HIDETEXT
280
    1
  9
$XCLIPFRAME
290
    0
  9
$HALOGAP
280
    0
  9
$OBSCOLOR
 70
  257
  9
$OBSLTYPE
280
    0
  9
$INTERSECTIONDISPLAY
280
    0
  9
$INTERSECTIONCOLOR
 70
  257
  9
$DIMASSOC
280
    1
  9
$PROJECTNAME
  1

  9
$CAMERADISPLAY
290
    0
  9
$LENSLENGTH
 40
50
  9
$CAMERAHEIGHT
 40
0
  9
$STEPSPERSEC
 40
2
  9
$STEPSIZE
 40
50
  9
$3DDWFPREC
 40
2
  9
$PSOLWIDTH
 40
5
  9
$PSOLHEIGHT
 40
80
  9
$LOFTANG1
 40
1.570796326794897
  9
$LOFTANG2
 40
1.570796326794897
  9
$LOFTMAG1
 40
0
  9
$LOFTMAG2
 40
0
  9
$LOFTPARAM
 70
    7
  9
$LOFTNORMALS
280
    1
  9
$LATITUDE
 40
1
  9
$LONGITUDE
 40
1
  9
$NORTHDIRECTION
 40
0
  9
$TIMEZONE
 70
-8000
  9
$LIGHTGLYPHDISPLAY
280
    1
  9
$TILEMODELIGHTSYNCH
280
    1
  9
$SOLIDHIST
280
    1
  9
$SHOWHIST
280
    1
  9
$DWFFRAME
280
    2
  9
$DGNFRAME
280
    0
  9
$REALWORLDSCALE
290
    1
  9
$INTERFERECOLOR
 62
    1
  9
$CSHADOW
280
    0
  9
$SHADOWPLANELOCATION
 40
0
  0
ENDSEC
  0
SECTION
  2
CLASSES
  0
ENDSEC
  0
SECTION
  2
TABLES
  0
TABLE
  2
VPORT
  5
8
330
0
100
AcDbSymbolTable
 70
    1
  0
VPORT
  5
31
330
2
100
AcDbSymbolTableRecord
100
AcDbViewportTableRecord
  2
*ACTIVE
 70
    0
 10
0
 20
0
 11
1
 21
1
 12
149.6805654429342
 22
113.6656310595857
 13
0
 23
0
 14
10
 24
10
 15
10
 25
10
 16
0
 26
0
 36
1
 17
0
 27
0
 37
0
 40
221.085897775238
 41
1.250470809792844
 42
50
 43
0
 44
0
 50
0
 51
0
 71
    0
 72
  100
 73
    1
 74
    3
 75
    0
 76
    0
 77
    0
 78
    0
281
    0
 65
    1
110
0
120
0
130
0
111
1
121
0
131
0
112
0
122
1
132
0
 79
    0
146
0
348
10020
 60
    7
 61
    5
292
1
282
    1
141
0
142
0
 63
  250
421
3358443
  0
ENDTAB
  0
TABLE
  2
LTYPE
  5
5
330
0
100
AcDbSymbolTable
 70
    4
  0
LTYPE
  5
14
330
5
100
AcDbSymbolTableRecord
100
AcDbLinetypeTableRecord
  2
ByBlock
 70
    0
  3

 72
   65
 73
    0
 40
0
  0
LTYPE
  5
15
330
5
100
AcDbSymbolTableRecord
100
AcDbLinetypeTableRecord
  2
ByLayer
 70
    0
  3

 72
   65
 73
    0
 40
0
  0
LTYPE
  5
16
330
5
100
AcDbSymbolTableRecord
100
AcDbLinetypeTableRecord
  2
Continuous
 70
    0
  3
Solid line
 72
   65
 73
    0
 40
0
  0
LTYPE
  5
32
330
5
100
AcDbSymbolTableRecord
100
AcDbLinetypeTableRecord
  2
DOT
 70
    0
  3
Dot . . . . . . . . . . . . . . . . . . . . . .
 72
   65
 73
    2
 40
6.35
 49
0
 74
    0
 49
-6.35
 74
    0
  0
LTYPE
  5
33
330
5
100
AcDbSymbolTableRecord
100
AcDbLinetypeTableRecord
  2
DOTTINY
 70
    0
  3
Dot (.15x) .....................................
 72
   65
 73
    2
 40
0.9525
 49
0
 74
    0
 49
-0.9525
 74
    0
  0
LTYPE
  5
34
330
5
100
AcDbSymbolTableRecord
100
AcDbLinetypeTableRecord
  2
DOT2
 70
    0
  3
Dot (.5x) .....................................
 72
   65
 73
    2
 40
3.175
 49
0
 74
    0
 49
-3.175
 74
    0
  0
LTYPE
  5
35
330
5
100
AcDbSymbolTableRecord
100
AcDbLinetypeTableRecord
  2
DOTX2
 70
    0
  3
Dot (2x) .  .  .  .  .  .  .  .  .  .  .  .  .
 72
   65
 73
    2
 40
12.7
 49
0
 74
    0
 49
-12.7
 74
    0
  0
LTYPE
  5
36
330
5
100
AcDbSymbolTableRecord
100
AcDbLinetypeTableRecord
  2
DASHED
 70
    0
  3
Dashed _ _ _ _ _ _ _ _ _ _ _ _ _ _ _ _ _
 72
   65
 73
    2
 40
19.05
 49
12.7
 74
    0
 49
-6.35
 74
    0
  0
LTYPE
  5
37
330
5
100
AcDbSymbolTableRecord
100
AcDbLinetypeTableRecord
  2
DASHEDTINY
 70
    0
  3
Dashed (.15x) _ _ _ _ _ _ _ _ _ _ _ _ _ _ _ _ _
 72
   65
 73
    2
 40
2.8575
 49
1.905
 74
    0
 49
-0.9525
 74
    0
  0
LTYPE
  5
38
330
5
100
AcDbSymbolTableRecord
100
AcDbLinetypeTableRecord
  2
DASHED2
 70
    0
  3
Dashed (.5x) _ _ _ _ _ _ _ _ _ _ _ _ _ _ _ _ _
 72
   65
 73
    2
 40
9.524999999999999
 49
6.35
 74
    0
 49
-3.175
 74
    0
  0
LTYPE
  5
39
330
5
100
AcDbSymbolTableRecord
100
AcDbLinetypeTableRecord
  2
DASHEDX2
 70
    0
  3
Dashed (2x) ____  ____  ____  ____  ____  ___
 72
   65
 73
    2
 40
38.09999999999999
 49
25.4
 74
    0
 49
-12.7
 74
    0
  0
LTYPE
  5
3A
330
5
100
AcDbSymbolTableRecord
100
AcDbLinetypeTableRecord
  2
DASHDOT
 70
    0
  3
Dash dot __ . __ . __ . __ . __ . __ . __ . __
 72
   65
 73
    4
 40
25.4
 49
12.7
 74
    0
 49
-6.35
 74
    0
 49
0
 74
    0
 49
-6.35
 74
    0
  0
LTYPE
  5
3B
330
5
100
AcDbSymbolTableRecord
100
AcDbLinetypeTableRecord
  2
DASHDOTTINY
 70
    0
  3
Dash dot (.15x) _._._._._._._._._._._._._._._.
 72
   65
 73
    4
 40
3.81
 49
1.905
 74
    0
 49
-0.9525
 74
    0
 49
0
 74
    0
 49
-0.9525
 74
    0
  0
LTYPE
  5
3C
330
5
100
AcDbSymbolTableRecord
100
AcDbLinetypeTableRecord
  2
DASHDOT2
 70
    0
  3
Dash dot (.5x) _._._._._._._._._._._._._._._.
 72
   65
 73
    4
 40
12.7
 49
6.35
 74
    0
 49
-3.175
 74
    0
 49
0
 74
    0
 49
-3.175
 74
    0
  0
LTYPE
  5
3D
330
5
100
AcDbSymbolTableRecord
100
AcDbLinetypeTableRecord
  2
DASHDOTX2
 70
    0
  3
Dash dot (2x) ____  .  ____  .  ____  .  ___
 72
   65
 73
    4
 40
50.8
 49
25.4
 74
    0
 49
-12.7
 74
    0
 49
0
 74
    0
 49
-12.7
 74
    0
  0
LTYPE
  5
3E
330
5
100
AcDbSymbolTableRecord
100
AcDbLinetypeTableRecord
  2
DIVIDE
 70
    0
  3
Divide ____ . . ____ . . ____ . . ____ . . ____
 72
   65
 73
    6
 40
31.75
 49
12.7
 74
    0
 49
-6.35
 74
    0
 49
0
 74
    0
 49
-6.35
 74
    0
 49
0
 74
    0
 49
-6.35
 74
    0
  0
LTYPE
  5
3F
330
5
100
AcDbSymbolTableRecord
100
AcDbLinetypeTableRecord
  2
DIVIDETINY
 70
    0
  3
Divide (.15x) __..__..__..__..__..__..__..__.._
 72
   65
 73
    6
 40
4.7625
 49
1.905
 74
    0
 49
-0.9525
 74
    0
 49
0
 74
    0
 49
-0.9525
 74
    0
 49
0
 74
    0
 49
-0.9525
 74
    0
  0
LTYPE
  5
40
330
5
100
AcDbSymbolTableRecord
100
AcDbLinetypeTableRecord
  2
DIVIDE2
 70
    0
  3
Divide (.5x) __..__..__..__..__..__..__..__.._
 72
   65
 73
    6
 40
15.875
 49
6.35
 74
    0
 49
-3.175
 74
    0
 49
0
 74
    0
 49
-3.175
 74
    0
 49
0
 74
    0
 49
-3.175
 74
    0
  0
LTYPE
  5
41
330
5
100
AcDbSymbolTableRecord
100
AcDbLinetypeTableRecord
  2
DIVIDEX2
 70
    0
  3
Divide (2x) ________  .  .  ________  .  .  _
 72
   65
 73
    6
 40
63.5
 49
25.4
 74
    0
 49
-12.7
 74
    0
 49
0
 74
    0
 49
-12.7
 74
    0
 49
0
 74
    0
 49
-12.7
 74
    0
  0
LTYPE
  5
42
330
5
100
AcDbSymbolTableRecord
100
AcDbLinetypeTableRecord
  2
BORDER
 70
    0
  3
Border __ __ . __ __ . __ __ . __ __ . __ __ .
 72
   65
 73
    6
 40
44.45
 49
12.7
 74
    0
 49
-6.35
 74
    0
 49
12.7
 74
    0
 49
-6.35
 74
    0
 49
0
 74
    0
 49
-6.35
 74
    0
  0
LTYPE
  5
43
330
5
100
AcDbSymbolTableRecord
100
AcDbLinetypeTableRecord
  2
BORDERTINY
 70
    0
  3
Border (.15x) __.__.__.__.__.__.__.__.__.__.__.
 72
   65
 73
    6
 40
6.6675
 49
1.905
 74
    0
 49
-0.9525
 74
    0
 49
1.905
 74
    0
 49
-0.9525
 74
    0
 49
0
 74
    0
 49
-0.9525
 74
    0
  0
LTYPE
  5
44
330
5
100
AcDbSymbolTableRecord
100
AcDbLinetypeTableRecord
  2
BORDER2
 70
    0
  3
Border (.5x) __.__.__.__.__.__.__.__.__.__.__.
 72
   65
 73
    6
 40
22.225
 49
6.35
 74
    0
 49
-3.175
 74
    0
 49
6.35
 74
    0
 49
-3.175
 74
    0
 49
0
 74
    0
 49
-3.175
 74
    0
  0
LTYPE
  5
45
330
5
100
AcDbSymbolTableRecord
100
AcDbLinetypeTableRecord
  2
BORDERX2
 70
    0
  3
Border (2x) ____  ____  .  ____  ____  .  ___
 72
   65
 73
    6
 40
88.89999999999999
 49
25.4
 74
    0
 49
-12.7
 74
    0
 49
25.4
 74
    0
 49
-12.7
 74
    0
 49
0
 74
    0
 49
-12.7
 74
    0
  0
LTYPE
  5
46
330
5
100
AcDbSymbolTableRecord
100
AcDbLinetypeTableRecord
  2
CENTER
 70
    0
  3
Center ____ _ ____ _ ____ _ ____ _ ____ _ ____
 72
   65
 73
    4
 40
50.8
 49
31.75
 74
    0
 49
-6.35
 74
    0
 49
6.35
 74
    0
 49
-6.35
 74
    0
  0
LTYPE
  5
47
330
5
100
AcDbSymbolTableRecord
100
AcDbLinetypeTableRecord
  2
CENTERTINY
 70
    0
  3
Center (.15x) ___ _ ___ _ ___ _ ___ _ ___ _ ___
 72
   65
 73
    4
 40
7.619999999999999
 49
4.7625
 74
    0
 49
-0.9525
 74
    0
 49
0.9525
 74
    0
 49
-0.9525
 74
    0
  0
LTYPE
  5
48
330
5
100
AcDbSymbolTableRecord
100
AcDbLinetypeTableRecord
  2
CENTER2
 70
    0
  3
Center (.5x) ___ _ ___ _ ___ _ ___ _ ___ _ ___
 72
   65
 73
    4
 40
28.575
 49
19.05
 74
    0
 49
-3.175
 74
    0
 49
3.175
 74
    0
 49
-3.175
 74
    0
  0
LTYPE
  5
49
330
5
100
AcDbSymbolTableRecord
100
AcDbLinetypeTableRecord
  2
CENTERX2
 70
    0
  3
Center (2x) ________  __  ________  __  _____
 72
   65
 73
    4
 40
101.6
 49
63.5
 74
    0
 49
-12.7
 74
    0
 49
12.7
 74
    0
 49
-12.7
 74
    0
  0
ENDTAB
  0
TABLE
  2
LAYER
  5
2
330
0
100
AcDbSymbolTable
 70
    1
  0
LAYER
  5
10
330
2
100
AcDbSymbolTableRecord
100
AcDbLayerTableRecord
  2
0
 70
    0
 62
    7
  6
CONTINUOUS
370
   -3
390
F
  0
LAYER
  5
4A
330
2
100
AcDbSymbolTableRecord
100
AcDbLayerTableRecord
  2
Annotation
 70
    0
 62
    7
  6
CONTINUOUS
370
   -3
390
F
  0
LAYER
  5
4B
330
2
100
AcDbSymbolTableRecord
100
AcDbLayerTableRecord
  2
Dimension
 70
    0
 62
    7
  6
CONTINUOUS
370
   -3
390
F
  0
LAYER
  5
4C
330
2
100
AcDbSymbolTableRecord
100
AcDbLayerTableRecord
  2
Dimension001
 70
    0
 62
    7
  6
CONTINUOUS
370
   -3
390
F
  0
LAYER
  5
4D
330
2
100
AcDbSymbolTableRecord
100
AcDbLayerTableRecord
  2
Dimension002
 70
    0
 62
    7
  6
CONTINUOUS
370
   -3
390
F
  0
LAYER
  5
4E
330
2
100
AcDbSymbolTableRecord
100
AcDbLayerTableRecord
  2
Dimension003
 70
    0
 62
    7
  6
CONTINUOUS
370
   -3
390
F
  0
LAYER
  5
4F
330
2
100
AcDbSymbolTableRecord
100
AcDbLayerTableRecord
  2
Dimension004
 70
    0
 62
    7
  6
CONTINUOUS
370
   -3
390
F
  0
LAYER
  5
50
330
2
100
AcDbSymbolTableRecord
100
AcDbLayerTableRecord
  2
Dimension005
 70
    0
 62
    7
  6
CONTINUOUS
370
   -3
390
F
  0
LAYER
  5
51
330
2
100
AcDbSymbolTableRecord
100
AcDbLayerTableRecord
  2
Dimension006
 70
    0
 62
    7
  6
CONTINUOUS
370
   -3
390
F
  0
LAYER
  5
52
330
2
100
AcDbSymbolTableRecord
100
AcDbLayerTableRecord
  2
Dimension007
 70
    0
 62
    7
  6
CONTINUOUS
370
   -3
390
F
  0
LAYER
  5
53
330
2
100
AcDbSymbolTableRecord
100
AcDbLayerTableRecord
  2
Dimension008
 70
    0
 62
    7
  6
CONTINUOUS
370
   -3
390
F
  0
LAYER
  5
54
330
2
100
AcDbSymbolTableRecord
100
AcDbLayerTableRecord
  2
Dimension009
 70
    0
 62
    7
  6
CONTINUOUS
370
   -3
390
F
  0
LAYER
  5
55
330
2
100
AcDbSymbolTableRecord
100
AcDbLayerTableRecord
  2
Dimension010
 70
    0
 62
    7
  6
CONTINUOUS
370
   -3
390
F
  0
LAYER
  5
56
330
2
100
AcDbSymbolTableRecord
100
AcDbLayerTableRecord
  2
Dimension011
 70
    0
 62
    7
  6
CONTINUOUS
370
   -3
390
F
  0
LAYER
  5
57
330
2
100
AcDbSymbolTableRecord
100
AcDbLayerTableRecord
  2
Dimension012
 70
    0
 62
    7
  6
CONTINUOUS
370
   -3
390
F
  0
LAYER
  5
58
330
2
100
AcDbSymbolTableRecord
100
AcDbLayerTableRecord
  2
Dimension020
 70
    0
 62
    7
  6
CONTINUOUS
370
   -3
390
F
  0
LAYER
  5
59
330
2
100
AcDbSymbolTableRecord
100
AcDbLayerTableRecord
  2
Dimension021
 70
    0
 62
    7
  6
CONTINUOUS
370
   -3
390
F
  0
LAYER
  5
5A
330
2
100
AcDbSymbolTableRecord
100
AcDbLayerTableRecord
  2
Dimension022
 70
    0
 62
    7
  6
CONTINUOUS
370
   -3
390
F
  0
LAYER
  5
5B
330
2
100
AcDbSymbolTableRecord
100
AcDbLayerTableRecord
  2
Dimension023
 70
    0
 62
    7
  6
CONTINUOUS
370
   -3
390
F
  0
LAYER
  5
5C
330
2
100
AcDbSymbolTableRecord
100
AcDbLayerTableRecord
  2
Dimension024
 70
    0
 62
    7
  6
CONTINUOUS
370
   -3
390
F
  0
LAYER
  5
5D
330
2
100
AcDbSymbolTableRecord
100
AcDbLayerTableRecord
  2
Dimension025
 70
    0
 62
    7
  6
CONTINUOUS
370
   -3
390
F
  0
LAYER
  5
5E
330
2
100
AcDbSymbolTableRecord
100
AcDbLayerTableRecord
  2
Dimension026
 70
    0
 62
    7
  6
CONTINUOUS
370
   -3
390
F
  0
LAYER
  5
5F
330
2
100
AcDbSymbolTableRecord
100
AcDbLayerTableRecord
  2
Dimension027
 70
    0
 62
    7
  6
CONTINUOUS
370
   -3
390
F
  0
LAYER
  5
60
330
2
100
AcDbSymbolTableRecord
100
AcDbLayerTableRecord
  2
Dimension028
 70
    0
 62
    7
  6
CONTINUOUS
370
   -3
390
F
  0
LAYER
  5
61
330
2
100
AcDbSymbolTableRecord
100
AcDbLayerTableRecord
  2
Dimension029
 70
    0
 62
    7
  6
CONTINUOUS
370
   -3
390
F
  0
LAYER
  5
62
330
2
100
AcDbSymbolTableRecord
100
AcDbLayerTableRecord
  2
Dimension038
 70
    0
 62
    7
  6
CONTINUOUS
370
   -3
390
F
  0
LAYER
  5
63
330
2
100
AcDbSymbolTableRecord
100
AcDbLayerTableRecord
  2
Dimension039
 70
    0
 62
    7
  6
CONTINUOUS
370
   -3
390
F
  0
LAYER
  5
64
330
2
100
AcDbSymbolTableRecord
100
AcDbLayerTableRecord
  2
Dimension040
 70
    0
 62
    7
  6
CONTINUOUS
370
   -3
390
F
  0
LAYER
  5
65
330
2
100
AcDbSymbolTableRecord
100
AcDbLayerTableRecord
  2
Dimension041
 70
    0
 62
    7
  6
CONTINUOUS
370
   -3
390
F
  0
LAYER
  5
66
330
2
100
AcDbSymbolTableRecord
100
AcDbLayerTableRecord
  2
Dimension042
 70
    0
 62
    7
  6
CONTINUOUS
370
   -3
390
F
  0
LAYER
  5
67
330
2
100
AcDbSymbolTableRecord
100
AcDbLayerTableRecord
  2
Dimension043
 70
    0
 62
    7
  6
CONTINUOUS
370
   -3
390
F
  0
LAYER
  5
68
330
2
100
AcDbSymbolTableRecord
100
AcDbLayerTableRecord
  2
Dimension044
 70
    0
 62
    7
  6
CONTINUOUS
370
   -3
390
F
  0
LAYER
  5
69
330
2
100
AcDbSymbolTableRecord
100
AcDbLayerTableRecord
  2
Dimension045
 70
    0
 62
    7
  6
CONTINUOUS
370
   -3
390
F
  0
LAYER
  5
6A
330
2
100
AcDbSymbolTableRecord
100
AcDbLayerTableRecord
  2
Dimension046
 70
    0
 62
    7
  6
CONTINUOUS
370
   -3
390
F
  0
LAYER
  5
6B
330
2
100
AcDbSymbolTableRecord
100
AcDbLayerTableRecord
  2
Dimension047
 70
    0
 62
    7
  6
CONTINUOUS
370
   -3
390
F
  0
LAYER
  5
6C
330
2
100
AcDbSymbolTableRecord
100
AcDbLayerTableRecord
  2
Dimension048
 70
    0
 62
    7
  6
CONTINUOUS
370
   -3
390
F
  0
LAYER
  5
6D
330
2
100
AcDbSymbolTableRecord
100
AcDbLayerTableRecord
  2
ProjItem007
 70
    0
 62
    7
  6
CONTINUOUS
370
   -3
390
F
  0
LAYER
  5
6E
330
2
100
AcDbSymbolTableRecord
100
AcDbLayerTableRecord
  2
ProjItem008
 70
    0
 62
    7
  6
CONTINUOUS
370
   -3
390
F
  0
LAYER
  5
6F
330
2
100
AcDbSymbolTableRecord
100
AcDbLayerTableRecord
  2
ProjItem009
 70
    0
 62
    7
  6
CONTINUOUS
370
   -3
390
F
  0
LAYER
  5
70
330
2
100
AcDbSymbolTableRecord
100
AcDbLayerTableRecord
  2
ProjItem010
 70
    0
 62
    7
  6
CONTINUOUS
370
   -3
390
F
  0
ENDTAB
  0
TABLE
  2
STYLE
  5
3
330
0
100
AcDbSymbolTable
 70
    3
  0
STYLE
  5
71
330
2
100
AcDbSymbolTableRecord
100
AcDbTextStyleTableRecord
  2
standard
 70
    0
 40
0
 41
1
 50
0
 71
    0
 42
1
  3
standard
  4

  0
ENDTAB
  0
TABLE
  2
VIEW
  5
6
330
0
100
AcDbSymbolTable
 70
    0
  0
ENDTAB
  0
TABLE
  2
UCS
  5
7
330
0
100
AcDbSymbolTable
 70
    0
  0
ENDTAB
  0
TABLE
  2
APPID
  5
9
330
0
100
AcDbSymbolTable
 70
    1
  0
APPID
  5
12
330
9
100
AcDbSymbolTableRecord
100
AcDbRegAppTableRecord
  2
ACAD
 70
    0
  0
APPID
  5
72
330
9
100
AcDbSymbolTableRecord
100
AcDbRegAppTableRecord
  2
LibreCad
 70
    0
  0
ENDTAB
  0
TABLE
  2
DIMSTYLE
  5
A
330
0
100
AcDbSymbolTable
 70
    1
100
AcDbDimStyleTable
 71
    1
  0
DIMSTYLE
105
73
330
A
100
AcDbSymbolTableRecord
100
AcDbDimStyleTableRecord
  2
Standard
 70
    0
 40
1
 41
2.5
 42
0.625
 43
0.38
 44
1.25
 45
0
 46
0
 47
0
 48
0
 49
1
140
2.5
141
0.09
142
0
143
25.4
144
1
145
0
146
1
147
0.625
148
0
 71
    0
 72
    0
 73
    0
 74
    1
 75
    0
 76
    0
 77
    0
 78
    1
 79
    0
170
    0
171
    2
172
    0
173
    0
174
    0
175
    0
176
    0
177
    0
178
    0
179
    0
271
    2
272
    4
273
    2
274
    2
275
    0
276
    0
277
    2
278
    0
279
    0
280
    0
281
    0
282
    0
283
    1
284
    0
285
    0
286
    0
288
    0
289
    3
340
STANDARD
341

371
   -2
372
   -2
  0
ENDTAB
  0
TABLE
  2
BLOCK_RECORD
  5
1
330
0
100
AcDbSymbolTable
 70
    2
  0
BLOCK_RECORD
  5
1F
330
1
100
AcDbSymbolTableRecord
100
AcDbBlockTableRecord
  2
*Model_Space
 70
    0
280
    1
281
    0
  0
BLOCK_RECORD
  5
1E
330
1
100
AcDbSymbolTableRecord
100
AcDbBlockTableRecord
  2
*Paper_Space
 70
    0
280
    1
281
    0
  0
BLOCK_RECORD
  5
74
330
1
100
AcDbSymbolTableRecord
100
AcDbBlockTableRecord
  2
*D3
 70
    0
280
    1
281
    0
  0
BLOCK_RECORD
  5
77
330
1
100
AcDbSymbolTableRecord
100
AcDbBlockTableRecord
  2
*D15
 70
    0
280
    1
281
    0
  0
BLOCK_RECORD
  5
7A
330
1
100
AcDbSymbolTableRecord
100
AcDbBlockTableRecord
  2
*D22
 70
    0
280
    1
281
    0
  0
BLOCK_RECORD
  5
7D
330
1
100
AcDbSymbolTableRecord
100
AcDbBlockTableRecord
  2
*D27
 70
    0
280
    1
281
    0
  0
BLOCK_RECORD
  5
80
330
1
100
AcDbSymbolTableRecord
100
AcDbBlockTableRecord
  2
*D4
 70
    0
280
    1
281
    0
  0
BLOCK_RECORD
  5
83
330
1
100
AcDbSymbolTableRecord
100
AcDbBlockTableRecord
  2
*D26
 70
    0
280
    1
281
    0
  0
BLOCK_RECORD
  5
86
330
1
100
AcDbSymbolTableRecord
100
AcDbBlockTableRecord
  2
*D32
 70
    0
280
    1
281
    0
  0
BLOCK_RECORD
  5
89
330
1
100
AcDbSymbolTableRecord
100
AcDbBlockTableRecord
  2
*D1
 70
    0
280
    1
281
    0
  0
BLOCK_RECORD
  5
8C
330
1
100
AcDbSymbolTableRecord
100
AcDbBlockTableRecord
  2
*D17
 70
    0
280
    1
281
    0
  0
BLOCK_RECORD
  5
8F
330
1
100
AcDbSymbolTableRecord
100
AcDbBlockTableRecord
  2
*D19
 70
    0
280
    1
281
    0
  0
BLOCK_RECORD
  5
92
330
1
100
AcDbSymbolTableRecord
100
AcDbBlockTableRecord
  2
*D29
 70
    0
280
    1
281
    0
  0
BLOCK_RECORD
  5
95
330
1
100
AcDbSymbolTableRecord
100
AcDbBlockTableRecord
  2
*D31
 70
    0
280
    1
281
    0
  0
BLOCK_RECORD
  5
98
330
1
100
AcDbSymbolTableRecord
100
AcDbBlockTableRecord
  2
*D30
 70
    0
280
    1
281
    0
  0
BLOCK_RECORD
  5
9B
330
1
100
AcDbSymbolTableRecord
100
AcDbBlockTableRecord
  2
*D8
 70
    0
280
    1
281
    0
  0
BLOCK_RECORD
  5
9E
330
1
100
AcDbSymbolTableRecord
100
AcDbBlockTableRecord
  2
*D2
 70
    0
280
    1
281
    0
  0
BLOCK_RECORD
  5
A1
330
1
100
AcDbSymbolTableRecord
100
AcDbBlockTableRecord
  2
*D13
 70
    0
280
    1
281
    0
  0
BLOCK_RECORD
  5
A4
330
1
100
AcDbSymbolTableRecord
100
AcDbBlockTableRecord
  2
*D12
 70
    0
280
    1
281
    0
  0
BLOCK_RECORD
  5
A7
330
1
100
AcDbSymbolTableRecord
100
AcDbBlockTableRecord
  2
*D25
 70
    0
280
    1
281
    0
  0
BLOCK_RECORD
  5
AA
330
1
100
AcDbSymbolTableRecord
100
AcDbBlockTableRecord
  2
*D9
 70
    0
280
    1
281
    0
  0
BLOCK_RECORD
  5
AD
330
1
100
AcDbSymbolTableRecord
100
AcDbBlockTableRecord
  2
*D5
 70
    0
280
    1
281
    0
  0
BLOCK_RECORD
  5
B0
330
1
100
AcDbSymbolTableRecord
100
AcDbBlockTableRecord
  2
*D21
 70
    0
280
    1
281
    0
  0
BLOCK_RECORD
  5
B3
330
1
100
AcDbSymbolTableRecord
100
AcDbBlockTableRecord
  2
*D20
 70
    0
280
    1
281
    0
  0
BLOCK_RECORD
  5
B6
330
1
100
AcDbSymbolTableRecord
100
AcDbBlockTableRecord
  2
*D34
 70
    0
280
    1
281
    0
  0
BLOCK_RECORD
  5
B9
330
1
100
AcDbSymbolTableRecord
100
AcDbBlockTableRecord
  2
*D11
 70
    0
280
    1
281
    0
  0
BLOCK_RECORD
  5
BC
330
1
100
AcDbSymbolTableRecord
100
AcDbBlockTableRecord
  2
*D18
 70
    0
280
    1
281
    0
  0
BLOCK_RECORD
  5
BF
330
1
100
AcDbSymbolTableRecord
100
AcDbBlockTableRecord
  2
*D28
 70
    0
280
    1
281
    0
  0
BLOCK_RECORD
  5
C2
330
1
100
AcDbSymbolTableRecord
100
AcDbBlockTableRecord
  2
*D24
 70
    0
280
    1
281
    0
  0
BLOCK_RECORD
  5
C5
330
1
100
AcDbSymbolTableRecord
100
AcDbBlockTableRecord
  2
*D16
 70
    0
280
    1
281
    0
  0
BLOCK_RECORD
  5
C8
330
1
100
AcDbSymbolTableRecord
100
AcDbBlockTableRecord
  2
*D6
 70
    0
280
    1
281
    0
  0
BLOCK_RECORD
  5
CB
330
1
100
AcDbSymbolTableRecord
100
AcDbBlockTableRecord
  2
*D33
 70
    0
280
    1
281
    0
  0
BLOCK_RECORD
  5
CE
330
1
100
AcDbSymbolTableRecord
100
AcDbBlockTableRecord
  2
*D10
 70
    0
280
    1
281
    0
  0
BLOCK_RECORD
  5
D1
330
1
100
AcDbSymbolTableRecord
100
AcDbBlockTableRecord
  2
*D7
 70
    0
280
    1
281
    0
  0
BLOCK_RECORD
  5
D4
330
1
100
AcDbSymbolTableRecord
100
AcDbBlockTableRecord
  2
*D14
 70
    0
280
    1
281
    0
  0
BLOCK_RECORD
  5
D7
330
1
100
AcDbSymbolTableRecord
100
AcDbBlockTableRecord
  2
*D23
 70
    0
280
    1
281
    0
  0
ENDTAB
  0
ENDSEC
  0
SECTION
  2
BLOCKS
  0
BLOCK
  5
20
330
1F
100
AcDbEntity
  8
0
100
AcDbBlockBegin
  2
*Model_Space
 70
    0
 10
0
 20
0
 30
0
  3
*Model_Space
  1

  0
ENDBLK
  5
21
330
1F
100
AcDbEntity
  8
0
100
AcDbBlockEnd
  0
BLOCK
  5
1C
330
1B
100
AcDbEntity
  8
0
100
AcDbBlockBegin
  2
*Paper_Space
 70
    0
 10
0
 20
0
 30
0
  3
*Paper_Space
  1

  0
ENDBLK
  5
1D
330
1F
100
AcDbEntity
  8
0
100
AcDbBlockEnd
  0
BLOCK
  5
75
330
74
100
AcDbEntity
  8
0
100
AcDbBlockBegin
  2
*D3
 70
    1
 10
0
 20
0
  3
*D3
  1

  0
LINE
  5
DA
100
AcDbEntity
  8
Dimension002
  6
ByBlock
 62
    0
370
   -2
100
AcDbLine
 10
76.3253
 20
126.669
 11
96.3253
 21
126.669
  0
SOLID
  5
DB
100
AcDbEntity
  8
Dimension002
  6
ByBlock
 62
    0
370
   -2
100
AcDbTrace
 10
76.3253
 20
126.669
 30
0
 11
78.8253
 21
127.0852846577728
 31
0
 12
78.8253
 22
126.2527153422272
 32
0
 13
78.8253
 23
126.2527153422272
 33
0
  0
SOLID
  5
DC
100
AcDbEntity
  8
Dimension002
  6
ByBlock
 62
    0
370
   -2
100
AcDbTrace
 10
96.3253
 20
126.669
 30
0
 11
93.8253
 21
126.2527153422272
 31
0
 12
93.8253
 22
127.0852846577728
 32
0
 13
93.8253
 23
127.0852846577728
 33
0
  0
MTEXT
  5
DD
100
AcDbEntity
  8
Dimension002
  6
CONTINUOUS
 62
    0
370
   -2
100
AcDbMText
 10
85.89100000000001
 20
131.669
 30
0
 40
2.5
 41
3.055555555555556
 71
    5
 72
    1
  1
20
  7
STANDARD
210
0
220
0
230
1
 50
0
 73
    2
 44
1
  0
LINE
  5
DE
100
AcDbEntity
  8
Dimension002
  6
ByBlock
 62
    0
370
   -2
100
AcDbLine
 10
76.3253
 20
132.13
 11
76.3253
 21
125.419
  0
LINE
  5
DF
100
AcDbEntity
  8
Dimension002
  6
ByBlock
 62
    0
370
   -2
100
AcDbLine
 10
96.3253
 20
132.13
 11
96.3253
 21
125.419
  0
ENDBLK
  5
76
330
74
100
AcDbEntity
  8
0
100
AcDbBlockEnd
  0
BLOCK
  5
78
330
77
100
AcDbEntity
  8
0
100
AcDbBlockBegin
  2
*D15
 70
    1
 10
0
 20
0
  3
*D15
  1

  0
LINE
  5
E0
100
AcDbEntity
  8
Dimension021
  6
ByBlock
 62
    0
370
   -2
100
AcDbLine
 10
204.8253207332774
 20
80.71857492592407
 11
194.6467388999667
 21
84.66778380531454
  0
LINE
  5
E1
100
AcDbEntity
  8
Dimension021
  6
ByBlock
 62
    0
370
   -2
100
AcDbLine
 10
211.8963207332774
 20
98.94317492592407
 11
201.7177388999668
 21
102.8923838053145
  0
LINE
  5
E2
100
AcDbEntity
  8
Dimension021
  6
ByBlock
 62
    0
370
   -2
100
AcDbLine
 10
195.812097433412
 20
84.21563395346641
 11
202.883097433412
 21
102.4402339534664
  0
SOLID
  5
E3
100
AcDbEntity
  8
Dimension021
  6
ByBlock
 62
    0
370
   -2
100
AcDbTrace
 10
195.812097433412
 20
84.21563395346641
 30
0
 11
196.328300434486
 21
86.69692945742786
 31
0
 12
197.1044938397306
 22
86.39577258328603
 32
0
 13
197.1044938397306
 23
86.39577258328603
 33
0
  0
SOLID
  5
E4
100
AcDbEntity
  8
Dimension021
  6
ByBlock
 62
    0
370
   -2
100
AcDbTrace
 10
202.883097433412
 20
102.4402339534664
 30
0
 11
202.3668944323381
 21
99.95893844950496
 31
0
 12
201.5907010270934
 22
100.2600953236468
 32
0
 13
201.5907010270934
 23
100.2600953236468
 33
0
  0
MTEXT
  5
E5
100
AcDbEntity
  8
Dimension021
  6
CONTINUOUS
 62
    0
370
   -2
100
AcDbMText
 10
204.159
 20
95.5217
 30
0
 40
2.5
 41
3.055555555555711
 71
    5
 72
    1
  1
30
  7
STANDARD
210
0
220
0
230
1
 50
68.7941425403594
 73
    2
 44
1
  0
ENDBLK
  5
79
330
77
100
AcDbEntity
  8
0
100
AcDbBlockEnd
  0
BLOCK
  5
7B
330
7A
100
AcDbEntity
  8
0
100
AcDbBlockBegin
  2
*D22
 70
    1
 10
0
 20
0
  3
*D22
  1

  0
LINE
  5
E6
100
AcDbEntity
  8
Dimension028
  6
ByBlock
 62
    0
370
   -2
100
AcDbLine
 10
267.9465278897009
 20
97.3593502257191
 11
270.5739040457337
 21
92.8091427137914
  0
LINE
  5
E7
100
AcDbEntity
  8
Dimension028
  6
ByBlock
 62
    0
370
   -2
100
AcDbLine
 10
276.4315278897009
 20
102.2587502257191
 11
279.0589040457338
 21
97.7085427137914
  0
LINE
  5
E8
100
AcDbEntity
  8
Dimension028
  6
ByBlock
 62
    0
370
   -2
100
AcDbLine
 10
269.948848266332
 20
93.8916422623532
 11
278.433848266332
 21
98.7910422623532
  0
SOLID
  5
E9
100
AcDbEntity
  8
Dimension028
  6
ByBlock
 62
    0
370
   -2
100
AcDbTrace
 10
269.948848266332
 20
93.8916422623532
 30
0
 11
271.9056864584819
 21
95.50225618444649
 31
0
 12
272.3220082684293
 22
94.78125145786682
 32
0
 13
272.3220082684293
 23
94.78125145786682
 33
0
  0
SOLID
  5
EA
100
AcDbEntity
  8
Dimension028
  6
ByBlock
 62
    0
370
   -2
100
AcDbTrace
 10
278.433848266332
 20
98.7910422623532
 30
0
 11
276.4770100741821
 21
97.18042834025991
 31
0
 12
276.0606882642347
 22
97.90143306683959
 32
0
 13
276.0606882642347
 23
97.90143306683959
 33
0
  0
MTEXT
  5
EB
100
AcDbEntity
  8
Dimension028
  6
CONTINUOUS
 62
    0
370
   -2
100
AcDbMText
 10
283.154
 20
104.403
 30
0
 40
2.5
 41
3.055555555555711
 71
    5
 72
    1
  1
30
  7
STANDARD
210
0
220
0
230
1
 50
30.00295231232661
 73
    2
 44
1
  0
ENDBLK
  5
7C
330
7A
100
AcDbEntity
  8
0
100
AcDbBlockEnd
  0
BLOCK
  5
7E
330
7D
100
AcDbEntity
  8
0
100
AcDbBlockBegin
  2
*D27
 70
    1
 10
0
 20
0
  3
*D27
  1

  0
LINE
  5
EC
100
AcDbEntity
  8
Dimension041
  6
ByBlock
 62
    0
370
   -2
100
AcDbLine
 10
46.3253
 20
63.9587
 11
58.3253
 21
63.9587
  0
SOLID
  5
ED
100
AcDbEntity
  8
Dimension041
  6
ByBlock
 62
    0
370
   -2
100
AcDbTrace
 10
46.3253
 20
63.9587
 30
0
 11
48.8253
 21
64.37498465777284
 31
0
 12
48.8253
 22
63.54241534222716
 32
0
 13
48.8253
 23
63.54241534222716
 33
0
  0
SOLID
  5
EE
100
AcDbEntity
  8
Dimension041
  6
ByBlock
 62
    0
370
   -2
100
AcDbTrace
 10
58.3253
 20
63.9587
 30
0
 11
55.8253
 21
63.54241534222716
 31
0
 12
55.8253
 22
64.37498465777284
 32
0
 13
55.8253
 23
64.37498465777284
 33
0
  0
MTEXT
  5
EF
100
AcDbEntity
  8
Dimension041
  6
CONTINUOUS
 62
    0
370
   -2
100
AcDbMText
 10
52.3253
 20
68.95869999999999
 30
0
 40
2.5
 41
2.5
 71
    5
 72
    1
  1
12
  7
STANDARD
210
0
220
0
230
1
 50
0
 73
    2
 44
1
  0
LINE
  5
F0
100
AcDbEntity
  8
Dimension041
  6
ByBlock
 62
    0
370
   -2
100
AcDbLine
 10
46.3253
 20
68.33369999999999
 11
46.3253
 21
62.7087
  0
LINE
  5
F1
100
AcDbEntity
  8
Dimension041
  6
ByBlock
 62
    0
370
   -2
100
AcDbLine
 10
58.3253
 20
68.33369999999999
 11
58.3253
 21
62.7087
  0
ENDBLK
  5
7F
330
7D
100
AcDbEntity
  8
0
100
AcDbBlockEnd
  0
BLOCK
  5
81
330
80
100
AcDbEntity
  8
0
100
AcDbBlockBegin
  2
*D4
 70
    1
 10
0
 20
0
  3
*D4
  1

  0
LINE
  5
F2
100
AcDbEntity
  8
Dimension003
  6
ByBlock
 62
    0
370
   -2
100
AcDbLine
 10
36.3253
 20
121.992
 11
96.3253
 21
121.992
  0
SOLID
  5
F3
100
AcDbEntity
  8
Dimension003
  6
ByBlock
 62
    0
370
   -2
100
AcDbTrace
 10
36.3253
 20
121.992
 30
0
 11
38.8253
 21
122.4082846577728
 31
0
 12
38.8253
 22
121.5757153422272
 32
0
 13
38.8253
 23
121.5757153422272
 33
0
  0
SOLID
  5
F4
100
AcDbEntity
  8
Dimension003
  6
ByBlock
 62
    0
370
   -2
100
AcDbTrace
 10
96.3253
 20
121.992
 30
0
 11
93.8253
 21
121.5757153422272
 31
0
 12
93.8253
 22
122.4082846577728
 32
0
 13
93.8253
 23
122.4082846577728
 33
0
  0
MTEXT
  5
F5
100
AcDbEntity
  8
Dimension003
  6
CONTINUOUS
 62
    0
370
   -2
100
AcDbMText
 10
65.69880000000001
 20
126.992
 30
0
 40
2.5
 41
3.055555555555711
 71
    5
 72
    1
  1
60
  7
STANDARD
210
0
220
0
230
1
 50
0
 73
    2
 44
1
  0
LINE
  5
F6
100
AcDbEntity
  8
Dimension003
  6
ByBlock
 62
    0
370
   -2
100
AcDbLine
 10
36.3253
 20
132.13
 11
36.3253
 21
120.742
  0
LINE
  5
F7
100
AcDbEntity
  8
Dimension003
  6
ByBlock
 62
    0
370
   -2
100
AcDbLine
 10
96.3253
 20
132.13
 11
96.3253
 21
120.742
  0
ENDBLK
  5
82
330
80
100
AcDbEntity
  8
0
100
AcDbBlockEnd
  0
BLOCK
  5
84
330
83
100
AcDbEntity
  8
0
100
AcDbBlockBegin
  2
*D26
 70
    1
 10
0
 20
0
  3
*D26
  1

  0
LINE
  5
F8
100
AcDbEntity
  8
Dimension040
  6
ByBlock
 62
    0
370
   -2
100
AcDbLine
 10
36.3253
 20
63.9587
 11
46.3253
 21
63.9587
  0
SOLID
  5
F9
100
AcDbEntity
  8
Dimension040
  6
ByBlock
 62
    0
370
   -2
100
AcDbTrace
 10
36.3253
 20
63.9587
 30
0
 11
38.8253
 21
64.37498465777284
 31
0
 12
38.8253
 22
63.54241534222716
 32
0
 13
38.8253
 23
63.54241534222716
 33
0
  0
SOLID
  5
FA
100
AcDbEntity
  8
Dimension040
  6
ByBlock
 62
    0
370
   -2
100
AcDbTrace
 10
46.3253
 20
63.9587
 30
0
 11
43.8253
 21
63.54241534222716
 31
0
 12
43.8253
 22
64.37498465777284
 32
0
 13
43.8253
 23
64.37498465777284
 33
0
  0
MTEXT
  5
FB
100
AcDbEntity
  8
Dimension040
  6
CONTINUOUS
 62
    0
370
   -2
100
AcDbMText
 10
41.3253
 20
68.95869999999999
 30
0
 40
2.5
 41
2.5
 71
    5
 72
    1
  1
10
  7
STANDARD
210
0
220
0
230
1
 50
0
 73
    2
 44
1
  0
LINE
  5
FC
100
AcDbEntity
  8
Dimension040
  6
ByBlock
 62
    0
370
   -2
100
AcDbLine
 10
36.3253
 20
68.33369999999999
 11
36.3253
 21
62.7087
  0
LINE
  5
FD
100
AcDbEntity
  8
Dimension040
  6
ByBlock
 62
    0
370
   -2
100
AcDbLine
 10
46.3253
 20
68.33369999999999
 11
46.3253
 21
62.7087
  0
ENDBLK
  5
85
330
83
100
AcDbEntity
  8
0
100
AcDbBlockEnd
  0
BLOCK
  5
87
330
86
100
AcDbEntity
  8
0
100
AcDbBlockBegin
  2
*D32
 70
    1
 10
0
 20
0
  3
*D32
  1

  0
LINE
  5
FE
100
AcDbEntity
  8
Dimension046
  6
ByBlock
 62
    0
370
   -2
100
AcDbLine
 10
34.1312
 20
108.959
 11
34.1312
 21
68.95869999999999
  0
SOLID
  5
FF
100
AcDbEntity
  8
Dimension046
  6
ByBlock
 62
    0
370
   -2
100
AcDbTrace
 10
34.1312
 20
108.959
 30
0
 11
34.54748465777284
 21
106.459
 31
0
 12
33.71491534222716
 22
106.459
 32
0
 13
33.71491534222716
 23
106.459
 33
0
  0
SOLID
  5
100
100
AcDbEntity
  8
Dimension046
  6
ByBlock
 62
    0
370
   -2
100
AcDbTrace
 10
34.1312
 20
68.95869999999999
 30
0
 11
33.71491534222716
 21
71.45869999999999
 31
0
 12
34.54748465777284
 22
71.45869999999999
 32
0
 13
34.54748465777284
 23
71.45869999999999
 33
0
  0
MTEXT
  5
101
100
AcDbEntity
  8
Dimension046
  6
CONTINUOUS
 62
    0
370
   -2
100
AcDbMText
 10
29.1312
 20
89.43089999999999
 30
0
 40
2.5
 41
3.333333333333333
 71
    5
 72
    1
  1
40
  7
STANDARD
210
0
220
0
230
1
 50
90
 73
    2
 44
1
  0
LINE
  5
102
100
AcDbEntity
  8
Dimension046
  6
ByBlock
 62
    0
370
   -2
100
AcDbLine
 10
35.7003
 20
108.959
 11
32.8812
 21
108.959
  0
LINE
  5
103
100
AcDbEntity
  8
Dimension046
  6
ByBlock
 62
    0
370
   -2
100
AcDbLine
 10
35.7003
 20
68.95869999999999
 11
32.8812
 21
68.95869999999999
  0
ENDBLK
  5
88
330
86
100
AcDbEntity
  8
0
100
AcDbBlockEnd
  0
BLOCK
  5
8A
330
89
100
AcDbEntity
  8
0
100
AcDbBlockBegin
  2
*D1
 70
    1
 10
0
 20
0
  3
*D1
  1

  0
LINE
  5
104
100
AcDbEntity
  8
Dimension
  6
ByBlock
 62
    0
370
   -2
100
AcDbLine
 10
36.3253
 20
127.755
 11
66.3253
 21
127.755
  0
SOLID
  5
105
100
AcDbEntity
  8
Dimension
  6
ByBlock
 62
    0
370
   -2
100
AcDbTrace
 10
36.3253
 20
127.755
 30
0
 11
38.8253
 21
128.1712846577728
 31
0
 12
38.8253
 22
127.3387153422272
 32
0
 13
38.8253
 23
127.3387153422272
 33
0
  0
SOLID
  5
106
100
AcDbEntity
  8
Dimension
  6
ByBlock
 62
    0
370
   -2
100
AcDbTrace
 10
66.3253
 20
127.755
 30
0
 11
63.8253
 21
127.3387153422272
 31
0
 12
63.8253
 22
128.1712846577728
 32
0
 13
63.8253
 23
128.1712846577728
 33
0
  0
MTEXT
  5
107
100
AcDbEntity
  8
Dimension
  6
CONTINUOUS
 62
    0
370
   -2
100
AcDbMText
 10
51.3253
 20
132.755
 30
0
 40
2.5
 41
3.055555555555711
 71
    5
 72
    1
  1
30
  7
STANDARD
210
0
220
0
230
1
 50
0
 73
    2
 44
1
  0
LINE
  5
108
100
AcDbEntity
  8
Dimension
  6
ByBlock
 62
    0
370
   -2
100
AcDbLine
 10
36.3253
 20
132.13
 11
36.3253
 21
126.505
  0
LINE
  5
109
100
AcDbEntity
  8
Dimension
  6
ByBlock
 62
    0
370
   -2
100
AcDbLine
 10
66.3253
 20
132.13
 11
66.3253
 21
126.505
  0
ENDBLK
  5
8B
330
89
100
AcDbEntity
  8
0
100
AcDbBlockEnd
  0
BLOCK
  5
8D
330
8C
100
AcDbEntity
  8
0
100
AcDbBlockBegin
  2
*D17
 70
    1
 10
0
 20
0
  3
*D17
  1

  0
LINE
  5
10A
100
AcDbEntity
  8
Dimension023
  6
ByBlock
 62
    0
370
   -2
100
AcDbLine
 10
255.2185032291246
 20
75.86873598698351
 11
259.6313703454906
 21
68.22553123993551
  0
LINE
  5
10B
100
AcDbEntity
  8
Dimension023
  6
ByBlock
 62
    0
370
   -2
100
AcDbLine
 10
262.2895032291245
 20
79.95123598698352
 11
266.7023703454905
 21
72.30803123993552
  0
LINE
  5
10C
100
AcDbEntity
  8
Dimension023
  6
ByBlock
 62
    0
370
   -2
100
AcDbLine
 10
259.0063638872414
 20
69.30805926596848
 11
266.0773638872414
 21
73.39055926596849
  0
SOLID
  5
10D
100
AcDbEntity
  8
Dimension023
  6
ByBlock
 62
    0
370
   -2
100
AcDbTrace
 10
259.0063638872414
 20
69.30805926596848
 30
0
 11
260.9632754596449
 21
70.91858402954408
 31
0
 12
261.3795644189698
 22
70.19756033538944
 32
0
 13
261.3795644189698
 23
70.19756033538944
 33
0
  0
SOLID
  5
10E
100
AcDbEntity
  8
Dimension023
  6
ByBlock
 62
    0
370
   -2
100
AcDbTrace
 10
266.0773638872414
 20
73.39055926596849
 30
0
 11
264.1204523148379
 21
71.78003450239289
 31
0
 12
263.704163355513
 22
72.50105819654753
 32
0
 13
263.704163355513
 23
72.50105819654753
 33
0
  0
MTEXT
  5
10F
100
AcDbEntity
  8
Dimension023
  6
CONTINUOUS
 62
    0
370
   -2
100
AcDbMText
 10
261.941
 20
73.8891
 30
0
 40
2.5
 41
5.416666666666822
 71
    5
 72
    1
  1
8,16
  7
STANDARD
210
0
220
0
230
1
 50
30.00034182004777
 73
    2
 44
1
  0
ENDBLK
  5
8E
330
8C
100
AcDbEntity
  8
0
100
AcDbBlockEnd
  0
BLOCK
  5
90
330
8F
100
AcDbEntity
  8
0
100
AcDbBlockBegin
  2
*D19
 70
    1
 10
0
 20
0
  3
*D19
  1

  0
LINE
  5
110
100
AcDbEntity
  8
Dimension025
  6
ByBlock
 62
    0
370
   -2
100
AcDbLine
 10
252.225
 20
84.575
 11
252.225
 21
76.41
  0
SOLID
  5
111
100
AcDbEntity
  8
Dimension025
  6
ByBlock
 62
    0
370
   -2
100
AcDbTrace
 10
252.225
 20
84.575
 30
0
 11
252.6412846577728
 21
82.075
 31
0
 12
251.8087153422271
 22
82.075
 32
0
 13
251.8087153422271
 23
82.075
 33
0
  0
SOLID
  5
112
100
AcDbEntity
  8
Dimension025
  6
ByBlock
 62
    0
370
   -2
100
AcDbTrace
 10
252.225
 20
76.41
 30
0
 11
251.8087153422271
 21
78.91
 31
0
 12
252.6412846577728
 22
78.91
 32
0
 13
252.6412846577728
 23
78.91
 33
0
  0
MTEXT
  5
113
100
AcDbEntity
  8
Dimension025
  6
CONTINUOUS
 62
    0
370
   -2
100
AcDbMText
 10
247.225
 20
81.2413
 30
0
 40
2.5
 41
5.416666666666822
 71
    5
 72
    1
  1
8,16
  7
STANDARD
210
0
220
0
230
1
 50
90
 73
    2
 44
1
  0
LINE
  5
114
100
AcDbEntity
  8
Dimension025
  6
ByBlock
 62
    0
370
   -2
100
AcDbLine
 10
254.281
 20
84.575
 11
250.975
 21
84.575
  0
LINE
  5
115
100
AcDbEntity
  8
Dimension025
  6
ByBlock
 62
    0
370
   -2
100
AcDbLine
 10
254.281
 20
76.41
 11
250.975
 21
76.41
  0
ENDBLK
  5
91
330
8F
100
AcDbEntity
  8
0
100
AcDbBlockEnd
  0
BLOCK
  5
93
330
92
100
AcDbEntity
  8
0
100
AcDbBlockBegin
  2
*D29
 70
    1
 10
0
 20
0
  3
*D29
  1

  0
LINE
  5
116
100
AcDbEntity
  8
Dimension043
  6
ByBlock
 62
    0
370
   -2
100
AcDbLine
 10
63.8253
 20
63.9587
 11
78.8253
 21
63.9587
  0
SOLID
  5
117
100
AcDbEntity
  8
Dimension043
  6
ByBlock
 62
    0
370
   -2
100
AcDbTrace
 10
63.8253
 20
63.9587
 30
0
 11
66.3253
 21
64.37498465777284
 31
0
 12
66.3253
 22
63.54241534222716
 32
0
 13
66.3253
 23
63.54241534222716
 33
0
  0
SOLID
  5
118
100
AcDbEntity
  8
Dimension043
  6
ByBlock
 62
    0
370
   -2
100
AcDbTrace
 10
78.8253
 20
63.9587
 30
0
 11
76.3253
 21
63.54241534222716
 31
0
 12
76.3253
 22
64.37498465777284
 32
0
 13
76.3253
 23
64.37498465777284
 33
0
  0
MTEXT
  5
119
100
AcDbEntity
  8
Dimension043
  6
CONTINUOUS
 62
    0
370
   -2
100
AcDbMText
 10
71.3253
 20
68.95869999999999
 30
0
 40
2.5
 41
2.500000000000155
 71
    5
 72
    1
  1
15
  7
STANDARD
210
0
220
0
230
1
 50
0
 73
    2
 44
1
  0
LINE
  5
11A
100
AcDbEntity
  8
Dimension043
  6
ByBlock
 62
    0
370
   -2
100
AcDbLine
 10
63.8253
 20
68.33369999999999
 11
63.8253
 21
62.7087
  0
LINE
  5
11B
100
AcDbEntity
  8
Dimension043
  6
ByBlock
 62
    0
370
   -2
100
AcDbLine
 10
78.8253
 20
68.33369999999999
 11
78.8253
 21
62.7087
  0
ENDBLK
  5
94
330
92
100
AcDbEntity
  8
0
100
AcDbBlockEnd
  0
BLOCK
  5
96
330
95
100
AcDbEntity
  8
0
100
AcDbBlockBegin
  2
*D31
 70
    1
 10
0
 20
0
  3
*D31
  1

  0
LINE
  5
11C
100
AcDbEntity
  8
Dimension045
  6
ByBlock
 62
    0
370
   -2
100
AcDbLine
 10
84.3253
 20
61.7869
 11
96.3253
 21
61.7869
  0
SOLID
  5
11D
100
AcDbEntity
  8
Dimension045
  6
ByBlock
 62
    0
370
   -2
100
AcDbTrace
 10
84.3253
 20
61.7869
 30
0
 11
86.8253
 21
62.20318465777284
 31
0
 12
86.8253
 22
61.37061534222716
 32
0
 13
86.8253
 23
61.37061534222716
 33
0
  0
SOLID
  5
11E
100
AcDbEntity
  8
Dimension045
  6
ByBlock
 62
    0
370
   -2
100
AcDbTrace
 10
96.3253
 20
61.7869
 30
0
 11
93.8253
 21
61.37061534222716
 31
0
 12
93.8253
 22
62.20318465777284
 32
0
 13
93.8253
 23
62.20318465777284
 33
0
  0
MTEXT
  5
11F
100
AcDbEntity
  8
Dimension045
  6
CONTINUOUS
 62
    0
370
   -2
100
AcDbMText
 10
90.3253
 20
66.7869
 30
0
 40
2.5
 41
2.5
 71
    5
 72
    1
  1
12
  7
STANDARD
210
0
220
0
230
1
 50
0
 73
    2
 44
1
  0
LINE
  5
120
100
AcDbEntity
  8
Dimension045
  6
ByBlock
 62
    0
370
   -2
100
AcDbLine
 10
84.3253
 20
68.33369999999999
 11
84.3253
 21
60.5369
  0
LINE
  5
121
100
AcDbEntity
  8
Dimension045
  6
ByBlock
 62
    0
370
   -2
100
AcDbLine
 10
96.3253
 20
68.33369999999999
 11
96.3253
 21
60.5369
  0
ENDBLK
  5
97
330
95
100
AcDbEntity
  8
0
100
AcDbBlockEnd
  0
BLOCK
  5
99
330
98
100
AcDbEntity
  8
0
100
AcDbBlockBegin
  2
*D30
 70
    1
 10
0
 20
0
  3
*D30
  1

  0
LINE
  5
122
100
AcDbEntity
  8
Dimension044
  6
ByBlock
 62
    0
370
   -2
100
AcDbLine
 10
73.8253
 20
61.6132
 11
89.3253
 21
61.6132
  0
SOLID
  5
123
100
AcDbEntity
  8
Dimension044
  6
ByBlock
 62
    0
370
   -2
100
AcDbTrace
 10
78.8253
 20
61.6132
 30
0
 11
76.3253
 21
61.19691534222716
 31
0
 12
76.3253
 22
62.02948465777284
 32
0
 13
76.3253
 23
62.02948465777284
 33
0
  0
SOLID
  5
124
100
AcDbEntity
  8
Dimension044
  6
ByBlock
 62
    0
370
   -2
100
AcDbTrace
 10
84.3253
 20
61.6132
 30
0
 11
86.8253
 21
62.02948465777284
 31
0
 12
86.8253
 22
61.19691534222716
 32
0
 13
86.8253
 23
61.19691534222716
 33
0
  0
MTEXT
  5
125
100
AcDbEntity
  8
Dimension044
  6
CONTINUOUS
 62
    0
370
   -2
100
AcDbMText
 10
81.5753
 20
66.61320000000001
 30
0
 40
2.5
 41
4.027777777778088
 71
    5
 72
    1
  1
5,5
  7
STANDARD
210
0
220
0
230
1
 50
0
 73
    2
 44
1
  0
LINE
  5
126
100
AcDbEntity
  8
Dimension044
  6
ByBlock
 62
    0
370
   -2
100
AcDbLine
 10
78.8253
 20
68.33369999999999
 11
78.8253
 21
60.3632
  0
LINE
  5
127
100
AcDbEntity
  8
Dimension044
  6
ByBlock
 62
    0
370
   -2
100
AcDbLine
 10
84.3253
 20
68.33369999999999
 11
84.3253
 21
60.3632
  0
ENDBLK
  5
9A
330
98
100
AcDbEntity
  8
0
100
AcDbBlockEnd
  0
BLOCK
  5
9C
330
9B
100
AcDbEntity
  8
0
100
AcDbBlockBegin
  2
*D8
 70
    1
 10
0
 20
0
  3
*D8
  1

  0
LINE
  5
128
100
AcDbEntity
  8
Dimension007
  6
ByBlock
 62
    0
370
   -2
100
AcDbLine
 10
46.3253
 20
152.966
 11
58.3253
 21
152.966
  0
SOLID
  5
129
100
AcDbEntity
  8
Dimension007
  6
ByBlock
 62
    0
370
   -2
100
AcDbTrace
 10
46.3253
 20
152.966
 30
0
 11
48.8253
 21
153.3822846577729
 31
0
 12
48.8253
 22
152.5497153422272
 32
0
 13
48.8253
 23
152.5497153422272
 33
0
  0
SOLID
  5
12A
100
AcDbEntity
  8
Dimension007
  6
ByBlock
 62
    0
370
   -2
100
AcDbTrace
 10
58.3253
 20
152.966
 30
0
 11
55.8253
 21
152.5497153422272
 31
0
 12
55.8253
 22
153.3822846577729
 32
0
 13
55.8253
 23
153.3822846577729
 33
0
  0
MTEXT
  5
12B
100
AcDbEntity
  8
Dimension007
  6
CONTINUOUS
 62
    0
370
   -2
100
AcDbMText
 10
52.5383
 20
157.966
 30
0
 40
2.5
 41
2.5
 71
    5
 72
    1
  1
12
  7
STANDARD
210
0
220
0
230
1
 50
0
 73
    2
 44
1
  0
LINE
  5
12C
100
AcDbEntity
  8
Dimension007
  6
ByBlock
 62
    0
370
   -2
100
AcDbLine
 10
46.3253
 20
150.701
 11
46.3253
 21
154.216
  0
LINE
  5
12D
100
AcDbEntity
  8
Dimension007
  6
ByBlock
 62
    0
370
   -2
100
AcDbLine
 10
58.3253
 20
150.701
 11
58.3253
 21
154.216
  0
ENDBLK
  5
9D
330
9B
100
AcDbEntity
  8
0
100
AcDbBlockEnd
  0
BLOCK
  5
9F
330
9E
100
AcDbEntity
  8
0
100
AcDbBlockBegin
  2
*D2
 70
    1
 10
0
 20
0
  3
*D2
  1

  0
LINE
  5
12E
100
AcDbEntity
  8
Dimension001
  6
ByBlock
 62
    0
370
   -2
100
AcDbLine
 10
66.3253
 20
127.755
 11
76.3253
 21
127.755
  0
SOLID
  5
12F
100
AcDbEntity
  8
Dimension001
  6
ByBlock
 62
    0
370
   -2
100
AcDbTrace
 10
66.3253
 20
127.755
 30
0
 11
68.8253
 21
128.1712846577728
 31
0
 12
68.8253
 22
127.3387153422272
 32
0
 13
68.8253
 23
127.3387153422272
 33
0
  0
SOLID
  5
130
100
AcDbEntity
  8
Dimension001
  6
ByBlock
 62
    0
370
   -2
100
AcDbTrace
 10
76.3253
 20
127.755
 30
0
 11
73.8253
 21
127.3387153422272
 31
0
 12
73.8253
 22
128.1712846577728
 32
0
 13
73.8253
 23
128.1712846577728
 33
0
  0
MTEXT
  5
131
100
AcDbEntity
  8
Dimension001
  6
CONTINUOUS
 62
    0
370
   -2
100
AcDbMText
 10
72.48180000000001
 20
132.755
 30
0
 40
2.5
 41
2.5
 71
    5
 72
    1
  1
10
  7
STANDARD
210
0
220
0
230
1
 50
0
 73
    2
 44
1
  0
LINE
  5
132
100
AcDbEntity
  8
Dimension001
  6
ByBlock
 62
    0
370
   -2
100
AcDbLine
 10
66.3253
 20
132.13
 11
66.3253
 21
126.505
  0
LINE
  5
133
100
AcDbEntity
  8
Dimension001
  6
ByBlock
 62
    0
370
   -2
100
AcDbLine
 10
76.3253
 20
132.13
 11
76.3253
 21
126.505
  0
ENDBLK
  5
A0
330
9E
100
AcDbEntity
  8
0
100
AcDbBlockEnd
  0
BLOCK
  5
A2
330
A1
100
AcDbEntity
  8
0
100
AcDbBlockBegin
  2
*D13
 70
    1
 10
0
 20
0
  3
*D13
  1

  0
LINE
  5
134
100
AcDbEntity
  8
Dimension012
  6
ByBlock
 62
    0
370
   -2
100
AcDbLine
 10
169.349
 20
165.076
 11
169.349
 21
150.076
  0
SOLID
  5
135
100
AcDbEntity
  8
Dimension012
  6
ByBlock
 62
    0
370
   -2
100
AcDbTrace
 10
169.349
 20
165.076
 30
0
 11
169.7652846577728
 21
162.576
 31
0
 12
168.9327153422271
 22
162.576
 32
0
 13
168.9327153422271
 23
162.576
 33
0
  0
SOLID
  5
136
100
AcDbEntity
  8
Dimension012
  6
ByBlock
 62
    0
370
   -2
100
AcDbTrace
 10
169.349
 20
150.076
 30
0
 11
168.9327153422271
 21
152.576
 31
0
 12
169.7652846577728
 22
152.576
 32
0
 13
169.7652846577728
 23
152.576
 33
0
  0
MTEXT
  5
137
100
AcDbEntity
  8
Dimension012
  6
CONTINUOUS
 62
    0
370
   -2
100
AcDbMText
 10
164.349
 20
158.863
 30
0
 40
2.5
 41
2.500000000000155
 71
    5
 72
    1
  1
15
  7
STANDARD
210
0
220
0
230
1
 50
90
 73
    2
 44
1
  0
LINE
  5
138
100
AcDbEntity
  8
Dimension012
  6
ByBlock
 62
    0
370
   -2
100
AcDbLine
 10
157.306
 20
165.076
 11
170.599
 21
165.076
  0
LINE
  5
139
100
AcDbEntity
  8
Dimension012
  6
ByBlock
 62
    0
370
   -2
100
AcDbLine
 10
157.306
 20
150.076
 11
170.599
 21
150.076
  0
ENDBLK
  5
A3
330
A1
100
AcDbEntity
  8
0
100
AcDbBlockEnd
  0
BLOCK
  5
A5
330
A4
100
AcDbEntity
  8
0
100
AcDbBlockBegin
  2
*D12
 70
    1
 10
0
 20
0
  3
*D12
  1

  0
LINE
  5
13A
100
AcDbEntity
  8
Dimension011
  6
ByBlock
 62
    0
370
   -2
100
AcDbLine
 10
116.681
 20
123.774
 11
156.681
 21
123.774
  0
SOLID
  5
13B
100
AcDbEntity
  8
Dimension011
  6
ByBlock
 62
    0
370
   -2
100
AcDbTrace
 10
116.681
 20
123.774
 30
0
 11
119.181
 21
124.1902846577728
 31
0
 12
119.181
 22
123.3577153422272
 32
0
 13
119.181
 23
123.3577153422272
 33
0
  0
SOLID
  5
13C
100
AcDbEntity
  8
Dimension011
  6
ByBlock
 62
    0
370
   -2
100
AcDbTrace
 10
156.681
 20
123.774
 30
0
 11
154.181
 21
123.3577153422272
 31
0
 12
154.181
 22
124.1902846577728
 32
0
 13
154.181
 23
124.1902846577728
 33
0
  0
MTEXT
  5
13D
100
AcDbEntity
  8
Dimension011
  6
CONTINUOUS
 62
    0
370
   -2
100
AcDbMText
 10
136.338
 20
128.774
 30
0
 40
2.5
 41
3.333333333333333
 71
    5
 72
    1
  1
40
  7
STANDARD
210
0
220
0
230
1
 50
0
 73
    2
 44
1
  0
LINE
  5
13E
100
AcDbEntity
  8
Dimension011
  6
ByBlock
 62
    0
370
   -2
100
AcDbLine
 10
116.681
 20
132.13
 11
116.681
 21
122.524
  0
LINE
  5
13F
100
AcDbEntity
  8
Dimension011
  6
ByBlock
 62
    0
370
   -2
100
AcDbLine
 10
156.681
 20
132.13
 11
156.681
 21
122.524
  0
ENDBLK
  5
A6
330
A4
100
AcDbEntity
  8
0
100
AcDbBlockEnd
  0
BLOCK
  5
A8
330
A7
100
AcDbEntity
  8
0
100
AcDbBlockBegin
  2
*D25
 70
    1
 10
0
 20
0
  3
*D25
  1

  0
LINE
  5
140
100
AcDbEntity
  8
Dimension039
  6
ByBlock
 62
    0
370
   -2
100
AcDbLine
 10
265.341614168228
 20
86.9528405160155
 11
251.5413858317721
 21
92.11025948398449
  0
SOLID
  5
141
100
AcDbEntity
  8
Dimension039
  6
ByBlock
 62
    0
370
   -2
100
AcDbTrace
 10
260.658
 20
88.7032
 30
0
 11
263.145536643868
 21
88.21796360223991
 31
0
 12
262.85407752436
 22
87.43807691377559
 32
0
 13
262.85407752436
 23
87.43807691377559
 33
0
  0
SOLID
  5
142
100
AcDbEntity
  8
Dimension039
  6
ByBlock
 62
    0
370
   -2
100
AcDbTrace
 10
256.225
 20
90.3599
 30
0
 11
253.7374633561321
 21
90.84513639776009
 31
0
 12
254.02892247564
 22
91.6250230862244
 32
0
 13
254.02892247564
 23
91.6250230862244
 33
0
  0
MTEXT
  5
143
100
AcDbEntity
  8
Dimension039
  6
CONTINUOUS
 62
    0
370
   -2
100
AcDbMText
 10
252.46
 20
92.4134
 30
0
 40
2.5
 41
3.611111111111266
 71
    5
 72
    1
  1
%%C6
  7
STANDARD
210
0
220
0
230
1
 50
339.5082872942294
 73
    2
 44
1
  0
ENDBLK
  5
A9
330
A7
100
AcDbEntity
  8
0
100
AcDbBlockEnd
  0
BLOCK
  5
AB
330
AA
100
AcDbEntity
  8
0
100
AcDbBlockBegin
  2
*D9
 70
    1
 10
0
 20
0
  3
*D9
  1

  0
LINE
  5
144
100
AcDbEntity
  8
Dimension008
  6
ByBlock
 62
    0
370
   -2
100
AcDbLine
 10
63.8253
 20
169.67
 11
78.8253
 21
169.67
  0
SOLID
  5
145
100
AcDbEntity
  8
Dimension008
  6
ByBlock
 62
    0
370
   -2
100
AcDbTrace
 10
63.8253
 20
169.67
 30
0
 11
66.3253
 21
170.0862846577728
 31
0
 12
66.3253
 22
169.2537153422271
 32
0
 13
66.3253
 23
169.2537153422271
 33
0
  0
SOLID
  5
146
100
AcDbEntity
  8
Dimension008
  6
ByBlock
 62
    0
370
   -2
100
AcDbTrace
 10
78.8253
 20
169.67
 30
0
 11
76.3253
 21
169.2537153422271
 31
0
 12
76.3253
 22
170.0862846577728
 32
0
 13
76.3253
 23
170.0862846577728
 33
0
  0
MTEXT
  5
147
100
AcDbEntity
  8
Dimension008
  6
CONTINUOUS
 62
    0
370
   -2
100
AcDbMText
 10
73.0294
 20
174.67
 30
0
 40
2.5
 41
2.500000000000155
 71
    5
 72
    1
  1
15
  7
STANDARD
210
0
220
0
230
1
 50
0
 73
    2
 44
1
  0
LINE
  5
148
100
AcDbEntity
  8
Dimension008
  6
ByBlock
 62
    0
370
   -2
100
AcDbLine
 10
63.8253
 20
165.701
 11
63.8253
 21
170.92
  0
LINE
  5
149
100
AcDbEntity
  8
Dimension008
  6
ByBlock
 62
    0
370
   -2
100
AcDbLine
 10
78.8253
 20
165.701
 11
78.8253
 21
170.92
  0
ENDBLK
  5
AC
330
AA
100
AcDbEntity
  8
0
100
AcDbBlockEnd
  0
BLOCK
  5
AE
330
AD
100
AcDbEntity
  8
0
100
AcDbBlockBegin
  2
*D5
 70
    1
 10
0
 20
0
  3
*D5
  1

  0
LINE
  5
14A
100
AcDbEntity
  8
Dimension004
  6
ByBlock
 62
    0
370
   -2
100
AcDbLine
 10
46.63779334357207
 20
150.6172697204012
 11
46.2207655353698
 21
149.894935853814
  0
LINE
  5
14B
100
AcDbEntity
  8
Dimension004
  6
ByBlock
 62
    0
370
   -2
100
AcDbLine
 10
46.9503
 20
132.755
 11
56.11665263782015
 21
132.755
  0
ARC
  5
14C
100
AcDbEntity
  8
Dimension004
  6
ByBlock
 62
    0
370
   -2
100
AcDbCircle
 10
36.32530000000001
 20
132.755
 40
18.54135263782014
100
AcDbArc
 50
0
 51
60.00070461466282
  0
SOLID
  5
14D
100
AcDbEntity
  8
Dimension004
  6
ByBlock
 62
    0
370
   -2
100
AcDbTrace
 10
45.59577884822568
 20
148.8123964130117
 30
0
 11
47.90368544663162
 21
147.7650855473508
 31
0
 12
47.43978243064666
 22
147.0737349438591
 32
0
 13
47.43978243064666
 23
147.0737349438591
 33
0
  0
SOLID
  5
14E
100
AcDbEntity
  8
Dimension004
  6
ByBlock
 62
    0
370
   -2
100
AcDbTrace
 10
54.86665263782015
 20
132.755
 30
0
 11
54.28289909821873
 21
135.2212775028978
 31
0
 12
55.11357710207378
 22
135.2773642134414
 32
0
 13
55.11357710207378
 23
135.2773642134414
 33
0
  0
MTEXT
  5
14F
100
AcDbEntity
  8
Dimension004
  6
CONTINUOUS
 62
    0
370
   -2
100
AcDbMText
 10
52.92378935571691
 20
142.3382783819227
 30
0
 40
2.5
 41
4.722222222222378
 71
    8
 72
    1
  1
60%%D
  7
STANDARD
210
0
220
0
230
1
 50
300.0003523073314
 73
    2
 44
1
  0
ENDBLK
  5
AF
330
AD
100
AcDbEntity
  8
0
100
AcDbBlockEnd
  0
BLOCK
  5
B1
330
B0
100
AcDbEntity
  8
0
100
AcDbBlockBegin
  2
*D21
 70
    1
 10
0
 20
0
  3
*D21
  1

  0
LINE
  5
150
100
AcDbEntity
  8
Dimension027
  6
ByBlock
 62
    0
370
   -2
100
AcDbLine
 10
224.541476153584
 20
118.6502521089301
 11
221.9604390852871
 21
123.1202846279302
  0
LINE
  5
151
100
AcDbEntity
  8
Dimension027
  6
ByBlock
 62
    0
370
   -2
100
AcDbLine
 10
235.147476153584
 20
124.7742521089302
 11
232.5664390852871
 21
129.2442846279302
  0
LINE
  5
152
100
AcDbEntity
  8
Dimension027
  6
ByBlock
 62
    0
370
   -2
100
AcDbLine
 10
222.5854867781192
 20
122.0377804100699
 11
233.1914867781192
 21
128.1617804100699
  0
SOLID
  5
153
100
AcDbEntity
  8
Dimension027
  6
ByBlock
 62
    0
370
   -2
100
AcDbTrace
 10
222.5854867781192
 20
122.0377804100699
 30
0
 11
224.542337001918
 21
123.6483797140297
 31
0
 12
224.9586534257616
 22
122.9273718774383
 32
0
 13
224.9586534257616
 23
122.9273718774383
 33
0
  0
SOLID
  5
154
100
AcDbEntity
  8
Dimension027
  6
ByBlock
 62
    0
370
   -2
100
AcDbTrace
 10
233.1914867781192
 20
128.1617804100699
 30
0
 11
231.2346365543204
 21
126.5511811061101
 31
0
 12
230.8183201304767
 22
127.2721889427016
 32
0
 13
230.8183201304767
 23
127.2721889427016
 33
0
  0
MTEXT
  5
155
100
AcDbEntity
  8
Dimension027
  6
CONTINUOUS
 62
    0
370
   -2
100
AcDbMText
 10
225.957
 20
126.871
 30
0
 40
2.5
 41
2.500000000000155
 71
    5
 72
    1
  1
15
  7
STANDARD
210
0
220
0
230
1
 50
30.00252429800024
 73
    2
 44
1
  0
ENDBLK
  5
B2
330
B0
100
AcDbEntity
  8
0
100
AcDbBlockEnd
  0
BLOCK
  5
B4
330
B3
100
AcDbEntity
  8
0
100
AcDbBlockBegin
  2
*D20
 70
    1
 10
0
 20
0
  3
*D20
  1

  0
LINE
  5
156
100
AcDbEntity
  8
Dimension026
  6
ByBlock
 62
    0
370
   -2
100
AcDbLine
 10
212.1665236510283
 20
99.25837953160386
 11
209.2497550179612
 21
104.310880831938
  0
LINE
  5
157
100
AcDbEntity
  8
Dimension026
  6
ByBlock
 62
    0
370
   -2
100
AcDbLine
 10
220.6525236510283
 20
104.1572795316039
 11
217.7357550179612
 21
109.209780831938
  0
LINE
  5
158
100
AcDbEntity
  8
Dimension026
  6
ByBlock
 62
    0
370
   -2
100
AcDbLine
 10
209.8747077159047
 20
103.2283217687303
 11
218.3607077159047
 21
108.1272217687303
  0
SOLID
  5
159
100
AcDbEntity
  8
Dimension026
  6
ByBlock
 62
    0
370
   -2
100
AcDbTrace
 10
209.8747077159047
 20
103.2283217687303
 30
0
 11
211.83169926633
 21
104.8387493479343
 31
0
 12
212.2479524183102
 22
104.1177049813002
 32
0
 13
212.2479524183102
 23
104.1177049813002
 33
0
  0
SOLID
  5
15A
100
AcDbEntity
  8
Dimension026
  6
ByBlock
 62
    0
370
   -2
100
AcDbTrace
 10
218.3607077159047
 20
108.1272217687303
 30
0
 11
216.4037161654793
 21
106.5167941895263
 31
0
 12
215.9874630134992
 22
107.2378385561604
 32
0
 13
215.9874630134992
 23
107.2378385561604
 33
0
  0
MTEXT
  5
15B
100
AcDbEntity
  8
Dimension026
  6
CONTINUOUS
 62
    0
370
   -2
100
AcDbMText
 10
213.339
 20
108.115
 30
0
 40
2.5
 41
2.5
 71
    5
 72
    1
  1
12
  7
STANDARD
210
0
220
0
230
1
 50
29.99749644848293
 73
    2
 44
1
  0
ENDBLK
  5
B5
330
B3
100
AcDbEntity
  8
0
100
AcDbBlockEnd
  0
BLOCK
  5
B7
330
B6
100
AcDbEntity
  8
0
100
AcDbBlockBegin
  2
*D34
 70
    1
 10
0
 20
0
  3
*D34
  1

  0
LINE
  5
15C
100
AcDbEntity
  8
Dimension048
  6
ByBlock
 62
    0
370
   -2
100
AcDbLine
 10
36.3253
 20
117.367
 11
71.3253
 21
117.367
  0
SOLID
  5
15D
100
AcDbEntity
  8
Dimension048
  6
ByBlock
 62
    0
370
   -2
100
AcDbTrace
 10
36.3253
 20
117.367
 30
0
 11
38.8253
 21
117.7832846577728
 31
0
 12
38.8253
 22
116.9507153422272
 32
0
 13
38.8253
 23
116.9507153422272
 33
0
  0
SOLID
  5
15E
100
AcDbEntity
  8
Dimension048
  6
ByBlock
 62
    0
370
   -2
100
AcDbTrace
 10
71.3253
 20
117.367
 30
0
 11
68.8253
 21
116.9507153422272
 31
0
 12
68.8253
 22
117.7832846577728
 32
0
 13
68.8253
 23
117.7832846577728
 33
0
  0
MTEXT
  5
15F
100
AcDbEntity
  8
Dimension048
  6
CONTINUOUS
 62
    0
370
   -2
100
AcDbMText
 10
52.5037
 20
121.436
 30
0
 40
2.5
 41
3.055555555555866
 71
    5
 72
    1
  1
35
  7
STANDARD
210
0
220
0
230
1
 50
0
 73
    2
 44
1
  0
LINE
  5
160
100
AcDbEntity
  8
Dimension048
  6
ByBlock
 62
    0
370
   -2
100
AcDbLine
 10
36.3253
 20
132.13
 11
36.3253
 21
116.117
  0
LINE
  5
161
100
AcDbEntity
  8
Dimension048
  6
ByBlock
 62
    0
370
   -2
100
AcDbLine
 10
71.3253
 20
157.13
 11
71.3253
 21
116.117
  0
ENDBLK
  5
B8
330
B6
100
AcDbEntity
  8
0
100
AcDbBlockEnd
  0
BLOCK
  5
BA
330
B9
100
AcDbEntity
  8
0
100
AcDbBlockBegin
  2
*D11
 70
    1
 10
0
 20
0
  3
*D11
  1

  0
LINE
  5
162
100
AcDbEntity
  8
Dimension010
  6
ByBlock
 62
    0
370
   -2
100
AcDbLine
 10
75.3724
 20
132.755
 11
75.3724
 21
142.755
  0
SOLID
  5
163
100
AcDbEntity
  8
Dimension010
  6
ByBlock
 62
    0
370
   -2
100
AcDbTrace
 10
75.3724
 20
132.755
 30
0
 11
74.95611534222716
 21
135.255
 31
0
 12
75.78868465777283
 22
135.255
 32
0
 13
75.78868465777283
 23
135.255
 33
0
  0
SOLID
  5
164
100
AcDbEntity
  8
Dimension010
  6
ByBlock
 62
    0
370
   -2
100
AcDbTrace
 10
75.3724
 20
142.755
 30
0
 11
75.78868465777283
 21
140.255
 31
0
 12
74.95611534222716
 22
140.255
 32
0
 13
74.95611534222716
 23
140.255
 33
0
  0
MTEXT
  5
165
100
AcDbEntity
  8
Dimension010
  6
CONTINUOUS
 62
    0
370
   -2
100
AcDbMText
 10
80.3724
 20
139.042
 30
0
 40
2.5
 41
2.5
 71
    5
 72
    1
  1
10
  7
STANDARD
210
0
220
0
230
1
 50
90
 73
    2
 44
1
  0
LINE
  5
166
100
AcDbEntity
  8
Dimension010
  6
ByBlock
 62
    0
370
   -2
100
AcDbLine
 10
75.7003
 20
132.755
 11
74.1224
 21
132.755
  0
LINE
  5
167
100
AcDbEntity
  8
Dimension010
  6
ByBlock
 62
    0
370
   -2
100
AcDbLine
 10
75.7003
 20
142.755
 11
74.1224
 21
142.755
  0
ENDBLK
  5
BB
330
B9
100
AcDbEntity
  8
0
100
AcDbBlockEnd
  0
BLOCK
  5
BD
330
BC
100
AcDbEntity
  8
0
100
AcDbBlockBegin
  2
*D18
 70
    1
 10
0
 20
0
  3
*D18
  1

  0
LINE
  5
168
100
AcDbEntity
  8
Dimension024
  6
ByBlock
 62
    0
370
   -2
100
AcDbLine
 10
262.2895032291245
 20
79.95123598698352
 11
266.702516998858
 21
72.30777723235138
  0
LINE
  5
169
100
AcDbEntity
  8
Dimension024
  6
ByBlock
 62
    0
370
   -2
100
AcDbLine
 10
276.4315032291246
 20
88.11623598698351
 11
280.8445169988581
 21
80.47277723235138
  0
LINE
  5
16A
100
AcDbEntity
  8
Dimension024
  6
ByBlock
 62
    0
370
   -2
100
AcDbLine
 10
266.0775105406089
 20
73.39030525838437
 11
280.219510540609
 21
81.55530525838437
  0
SOLID
  5
16B
100
AcDbEntity
  8
Dimension024
  6
ByBlock
 62
    0
370
   -2
100
AcDbTrace
 10
266.0775105406089
 20
73.39030525838437
 30
0
 11
268.0344221130124
 21
75.00083002195997
 31
0
 12
268.4507110723373
 22
74.27980632780532
 32
0
 13
268.4507110723373
 23
74.27980632780532
 33
0
  0
SOLID
  5
16C
100
AcDbEntity
  8
Dimension024
  6
ByBlock
 62
    0
370
   -2
100
AcDbTrace
 10
280.219510540609
 20
81.55530525838437
 30
0
 11
278.2625989682055
 21
79.94478049480877
 31
0
 12
277.8463100088806
 22
80.66580418896341
 32
0
 13
277.8463100088806
 23
80.66580418896341
 33
0
  0
MTEXT
  5
16D
100
AcDbEntity
  8
Dimension024
  6
CONTINUOUS
 62
    0
370
   -2
100
AcDbMText
 10
272.548
 20
80.0128
 30
0
 40
2.5
 41
7.361111111111576
 71
    5
 72
    1
  1
16,33
  7
STANDARD
210
0
220
0
230
1
 50
30.00034182004749
 73
    2
 44
1
  0
ENDBLK
  5
BE
330
BC
100
AcDbEntity
  8
0
100
AcDbBlockEnd
  0
BLOCK
  5
C0
330
BF
100
AcDbEntity
  8
0
100
AcDbBlockBegin
  2
*D28
 70
    1
 10
0
 20
0
  3
*D28
  1

  0
LINE
  5
16E
100
AcDbEntity
  8
Dimension042
  6
ByBlock
 62
    0
370
   -2
100
AcDbLine
 10
53.3253
 20
63.9587
 11
68.8253
 21
63.9587
  0
SOLID
  5
16F
100
AcDbEntity
  8
Dimension042
  6
ByBlock
 62
    0
370
   -2
100
AcDbTrace
 10
58.3253
 20
63.9587
 30
0
 11
55.8253
 21
63.54241534222716
 31
0
 12
55.8253
 22
64.37498465777284
 32
0
 13
55.8253
 23
64.37498465777284
 33
0
  0
SOLID
  5
170
100
AcDbEntity
  8
Dimension042
  6
ByBlock
 62
    0
370
   -2
100
AcDbTrace
 10
63.8253
 20
63.9587
 30
0
 11
66.3253
 21
64.37498465777284
 31
0
 12
66.3253
 22
63.54241534222716
 32
0
 13
66.3253
 23
63.54241534222716
 33
0
  0
MTEXT
  5
171
100
AcDbEntity
  8
Dimension042
  6
CONTINUOUS
 62
    0
370
   -2
100
AcDbMText
 10
61.0753
 20
68.95869999999999
 30
0
 40
2.5
 41
4.027777777778088
 71
    5
 72
    1
  1
5,5
  7
STANDARD
210
0
220
0
230
1
 50
0
 73
    2
 44
1
  0
LINE
  5
172
100
AcDbEntity
  8
Dimension042
  6
ByBlock
 62
    0
370
   -2
100
AcDbLine
 10
58.3253
 20
68.33369999999999
 11
58.3253
 21
62.7087
  0
LINE
  5
173
100
AcDbEntity
  8
Dimension042
  6
ByBlock
 62
    0
370
   -2
100
AcDbLine
 10
63.8253
 20
68.33369999999999
 11
63.8253
 21
62.7087
  0
ENDBLK
  5
C1
330
BF
100
AcDbEntity
  8
0
100
AcDbBlockEnd
  0
BLOCK
  5
C3
330
C2
100
AcDbEntity
  8
0
100
AcDbBlockBegin
  2
*D24
 70
    1
 10
0
 20
0
  3
*D24
  1

  0
LINE
  5
174
100
AcDbEntity
  8
Dimension038
  6
ByBlock
 62
    0
370
   -2
100
AcDbLine
 10
240.9900749259241
 20
82.96987926672264
 11
240.4231677651725
 21
81.50874841651276
  0
LINE
  5
175
100
AcDbEntity
  8
Dimension038
  6
ByBlock
 62
    0
370
   -2
100
AcDbLine
 10
233.1517419484841
 20
63.85008644562316
 11
217.5799459934019
 21
54.85918591615393
  0
ARC
  5
176
100
AcDbEntity
  8
Dimension038
  6
ByBlock
 62
    0
370
   -2
100
AcDbCircle
 10
233.693
 20
64.1626
 40
17.35602115002169
100
AcDbArc
 50
68.7941425403595
 51
210.001434810937
  0
SOLID
  5
177
100
AcDbEntity
  8
Dimension038
  6
ByBlock
 62
    0
370
   -2
100
AcDbTrace
 10
239.9710179133243
 20
80.34338988306749
 30
0
 11
237.4590095350156
 21
80.67970346234084
 31
0
 12
237.7035316908642
 22
81.47555557202412
 32
0
 13
237.7035316908642
 23
81.47555557202412
 33
0
  0
SOLID
  5
178
100
AcDbEntity
  8
Dimension038
  6
ByBlock
 62
    0
370
   -2
100
AcDbTrace
 10
218.6624620964336
 20
55.4842130249076
 30
0
 11
217.1968901552049
 21
57.5519150830824
 31
0
 12
217.9459934192934
 22
57.91525509590804
 32
0
 13
217.9459934192934
 23
57.91525509590804
 33
0
  0
MTEXT
  5
179
100
AcDbEntity
  8
Dimension038
  6
CONTINUOUS
 62
    0
370
   -2
100
AcDbMText
 10
220.0409781957684
 20
75.86471187155176
 30
0
 40
2.5
 41
6.111111111111111
 71
    8
 72
    1
  1
120%%D
  7
STANDARD
210
0
220
0
230
1
 50
409.3977886756483
 73
    2
 44
1
  0
ENDBLK
  5
C4
330
C2
100
AcDbEntity
  8
0
100
AcDbBlockEnd
  0
BLOCK
  5
C6
330
C5
100
AcDbEntity
  8
0
100
AcDbBlockBegin
  2
*D16
 70
    1
 10
0
 20
0
  3
*D16
  1

  0
LINE
  5
17A
100
AcDbEntity
  8
Dimension022
  6
ByBlock
 62
    0
370
   -2
100
AcDbLine
 10
234.0055013154563
 20
63.62133488211589
 11
238.4183693892176
 21
55.97806607006618
  0
LINE
  5
17B
100
AcDbEntity
  8
Dimension022
  6
ByBlock
 62
    0
370
   -2
100
AcDbLine
 10
255.2185013154563
 20
75.86873488211589
 11
259.6313693892176
 21
68.22546607006618
  0
LINE
  5
17C
100
AcDbEntity
  8
Dimension022
  6
ByBlock
 62
    0
370
   -2
100
AcDbLine
 10
237.793366758305
 20
57.06059630583439
 11
259.006366758305
 21
69.30799630583439
  0
SOLID
  5
17D
100
AcDbEntity
  8
Dimension022
  6
ByBlock
 62
    0
370
   -2
100
AcDbTrace
 10
237.793366758305
 20
57.06059630583439
 30
0
 11
239.7502840247882
 21
58.67111415063989
 31
0
 12
240.1665704348947
 22
57.95008898467906
 32
0
 13
240.1665704348947
 23
57.95008898467906
 33
0
  0
SOLID
  5
17E
100
AcDbEntity
  8
Dimension022
  6
ByBlock
 62
    0
370
   -2
100
AcDbTrace
 10
259.006366758305
 20
69.30799630583439
 30
0
 11
257.0494494918218
 21
67.69747846102889
 31
0
 12
256.6331630817153
 22
68.41850362698973
 32
0
 13
256.6331630817153
 23
68.41850362698973
 33
0
  0
MTEXT
  5
17F
100
AcDbEntity
  8
Dimension022
  6
CONTINUOUS
 62
    0
370
   -2
100
AcDbMText
 10
247.799
 20
65.72410000000001
 30
0
 40
2.5
 41
8.472222222222221
 71
    5
 72
    1
  1
24,49
  7
STANDARD
210
0
220
0
230
1
 50
30.00013924791577
 73
    2
 44
1
  0
ENDBLK
  5
C7
330
C5
100
AcDbEntity
  8
0
100
AcDbBlockEnd
  0
BLOCK
  5
C9
330
C8
100
AcDbEntity
  8
0
100
AcDbBlockBegin
  2
*D6
 70
    1
 10
0
 20
0
  3
*D6
  1

  0
LINE
  5
180
100
AcDbEntity
  8
Dimension005
  6
ByBlock
 62
    0
370
   -2
100
AcDbLine
 10
35.78403027959883
 20
133.0674933435721
 11
27.16136007190143
 21
138.0456529230983
  0
LINE
  5
181
100
AcDbEntity
  8
Dimension005
  6
ByBlock
 62
    0
370
   -2
100
AcDbLine
 10
45.78403027959883
 20
150.3884933435721
 11
37.16136007190143
 21
155.3666529230983
  0
LINE
  5
182
100
AcDbEntity
  8
Dimension005
  6
ByBlock
 62
    0
370
   -2
100
AcDbLine
 10
28.24389951270376
 20
137.4206662359542
 11
38.24389951270376
 21
154.7416662359542
  0
SOLID
  5
183
100
AcDbEntity
  8
Dimension005
  6
ByBlock
 62
    0
370
   -2
100
AcDbTrace
 10
28.24389951270376
 20
137.4206662359542
 30
0
 11
29.13335723848
 21
139.7938830128951
 31
0
 12
29.854388535504
 22
139.3776072222225
 32
0
 13
29.854388535504
 23
139.3776072222225
 33
0
  0
SOLID
  5
184
100
AcDbEntity
  8
Dimension005
  6
ByBlock
 62
    0
370
   -2
100
AcDbTrace
 10
38.24389951270376
 20
154.7416662359542
 30
0
 11
37.35444178692752
 21
152.3684494590132
 31
0
 12
36.63341048990353
 22
152.7847252496858
 32
0
 13
36.63341048990353
 23
152.7847252496858
 33
0
  0
MTEXT
  5
185
100
AcDbEntity
  8
Dimension005
  6
CONTINUOUS
 62
    0
370
   -2
100
AcDbMText
 10
36.6393
 20
146.962
 30
0
 40
2.5
 41
3.055555555555556
 71
    5
 72
    1
  1
20
  7
STANDARD
210
0
220
0
230
1
 50
60.00070461466282
 73
    2
 44
1
  0
ENDBLK
  5
CA
330
C8
100
AcDbEntity
  8
0
100
AcDbBlockEnd
  0
BLOCK
  5
CC
330
CB
100
AcDbEntity
  8
0
100
AcDbBlockBegin
  2
*D33
 70
    1
 10
0
 20
0
  3
*D33
  1

  0
LINE
  5
186
100
AcDbEntity
  8
Dimension047
  6
ByBlock
 62
    0
370
   -2
100
AcDbLine
 10
94.8165
 20
132.755
 11
94.8165
 21
157.755
  0
SOLID
  5
187
100
AcDbEntity
  8
Dimension047
  6
ByBlock
 62
    0
370
   -2
100
AcDbTrace
 10
94.8165
 20
132.755
 30
0
 11
94.40021534222717
 21
135.255
 31
0
 12
95.23278465777284
 22
135.255
 32
0
 13
95.23278465777284
 23
135.255
 33
0
  0
SOLID
  5
188
100
AcDbEntity
  8
Dimension047
  6
ByBlock
 62
    0
370
   -2
100
AcDbTrace
 10
94.8165
 20
157.755
 30
0
 11
95.23278465777284
 21
155.255
 31
0
 12
94.40021534222717
 22
155.255
 32
0
 13
94.40021534222717
 23
155.255
 33
0
  0
MTEXT
  5
189
100
AcDbEntity
  8
Dimension047
  6
CONTINUOUS
 62
    0
370
   -2
100
AcDbMText
 10
99.71939999999999
 20
147.912
 30
0
 40
2.5
 41
3.055555555555711
 71
    5
 72
    1
  1
25
  7
STANDARD
210
0
220
0
230
1
 50
90
 73
    2
 44
1
  0
LINE
  5
18A
100
AcDbEntity
  8
Dimension047
  6
ByBlock
 62
    0
370
   -2
100
AcDbLine
 10
66.9503
 20
132.755
 11
96.0665
 21
132.755
  0
LINE
  5
18B
100
AcDbEntity
  8
Dimension047
  6
ByBlock
 62
    0
370
   -2
100
AcDbLine
 10
71.9503
 20
157.755
 11
96.0665
 21
157.755
  0
ENDBLK
  5
CD
330
CB
100
AcDbEntity
  8
0
100
AcDbBlockEnd
  0
BLOCK
  5
CF
330
CE
100
AcDbEntity
  8
0
100
AcDbBlockBegin
  2
*D10
 70
    1
 10
0
 20
0
  3
*D10
  1

  0
LINE
  5
18C
100
AcDbEntity
  8
Dimension009
  6
ByBlock
 62
    0
370
   -2
100
AcDbLine
 10
74.30625801428822
 20
132.652063056959
 11
68.34444198571178
 21
147.499936943041
  0
SOLID
  5
18D
100
AcDbEntity
  8
Dimension009
  6
ByBlock
 62
    0
370
   -2
100
AcDbTrace
 10
72.4432
 20
137.292
 30
0
 11
73.76103591962838
 21
135.1271440220573
 31
0
 12
72.98842209465984
 22
134.8169190349017
 32
0
 13
72.98842209465984
 23
134.8169190349017
 33
0
  0
SOLID
  5
18E
100
AcDbEntity
  8
Dimension009
  6
ByBlock
 62
    0
370
   -2
100
AcDbTrace
 10
70.2075
 20
142.86
 30
0
 11
68.88966408037162
 21
145.0248559779427
 31
0
 12
69.66227790534016
 22
145.3350809650983
 32
0
 13
69.66227790534016
 23
145.3350809650983
 33
0
  0
MTEXT
  5
18F
100
AcDbEntity
  8
Dimension009
  6
CONTINUOUS
 62
    0
370
   -2
100
AcDbMText
 10
63.9823
 20
155.731
 30
0
 40
2.5
 41
3.611111111111266
 71
    5
 72
    1
  1
%%C6
  7
STANDARD
210
0
220
0
230
1
 50
291.8767720279012
 73
    2
 44
1
  0
ENDBLK
  5
D0
330
CE
100
AcDbEntity
  8
0
100
AcDbBlockEnd
  0
BLOCK
  5
D2
330
D1
100
AcDbEntity
  8
0
100
AcDbBlockBegin
  2
*D7
 70
    1
 10
0
 20
0
  3
*D7
  1

  0
LINE
  5
190
100
AcDbEntity
  8
Dimension006
  6
ByBlock
 62
    0
370
   -2
100
AcDbLine
 10
84.3253
 20
151.527
 11
96.3253
 21
151.527
  0
SOLID
  5
191
100
AcDbEntity
  8
Dimension006
  6
ByBlock
 62
    0
370
   -2
100
AcDbTrace
 10
84.3253
 20
151.527
 30
0
 11
86.8253
 21
151.9432846577728
 31
0
 12
86.8253
 22
151.1107153422271
 32
0
 13
86.8253
 23
151.1107153422271
 33
0
  0
SOLID
  5
192
100
AcDbEntity
  8
Dimension006
  6
ByBlock
 62
    0
370
   -2
100
AcDbTrace
 10
96.3253
 20
151.527
 30
0
 11
93.8253
 21
151.1107153422271
 31
0
 12
93.8253
 22
151.9432846577728
 32
0
 13
93.8253
 23
151.9432846577728
 33
0
  0
MTEXT
  5
193
100
AcDbEntity
  8
Dimension006
  6
CONTINUOUS
 62
    0
370
   -2
100
AcDbMText
 10
89.92529999999999
 20
156.527
 30
0
 40
2.5
 41
2.5
 71
    5
 72
    1
  1
12
  7
STANDARD
210
0
220
0
230
1
 50
0
 73
    2
 44
1
  0
LINE
  5
194
100
AcDbEntity
  8
Dimension006
  6
ByBlock
 62
    0
370
   -2
100
AcDbLine
 10
84.3253
 20
150.701
 11
84.3253
 21
152.777
  0
LINE
  5
195
100
AcDbEntity
  8
Dimension006
  6
ByBlock
 62
    0
370
   -2
100
AcDbLine
 10
96.3253
 20
150.701
 11
96.3253
 21
152.777
  0
ENDBLK
  5
D3
330
D1
100
AcDbEntity
  8
0
100
AcDbBlockEnd
  0
BLOCK
  5
D5
330
D4
100
AcDbEntity
  8
0
100
AcDbBlockBegin
  2
*D14
 70
    1
 10
0
 20
0
  3
*D14
  1

  0
LINE
  5
196
100
AcDbEntity
  8
Dimension020
  6
ByBlock
 62
    0
370
   -2
100
AcDbLine
 10
205.0955064924454
 20
79.95123037427157
 11
203.0903146425659
 21
76.47804000116216
  0
LINE
  5
197
100
AcDbEntity
  8
Dimension020
  6
ByBlock
 62
    0
370
   -2
100
AcDbLine
 10
233.3805064924454
 20
63.62133037427156
 11
231.375314642566
 21
60.14814000116215
  0
LINE
  5
198
100
AcDbEntity
  8
Dimension020
  6
ByBlock
 62
    0
370
   -2
100
AcDbLine
 10
203.7153016576752
 20
77.56057925261904
 11
232.0003016576752
 21
61.23067925261903
  0
SOLID
  5
199
100
AcDbEntity
  8
Dimension020
  6
ByBlock
 62
    0
370
   -2
100
AcDbTrace
 10
203.7153016576752
 20
77.56057925261904
 30
0
 11
206.0885181651468
 21
76.67112080785522
 31
0
 12
205.6722421560312
 22
75.95008963694579
 32
0
 13
205.6722421560312
 23
75.95008963694579
 33
0
  0
SOLID
  5
19A
100
AcDbEntity
  8
Dimension020
  6
ByBlock
 62
    0
370
   -2
100
AcDbTrace
 10
232.0003016576752
 20
61.23067925261903
 30
0
 11
229.6270851502037
 21
62.12013769738284
 31
0
 12
230.0433611593193
 22
62.84116886829227
 32
0
 13
230.0433611593193
 23
62.84116886829227
 33
0
  0
MTEXT
  5
19B
100
AcDbEntity
  8
Dimension020
  6
CONTINUOUS
 62
    0
370
   -2
100
AcDbMText
 10
216.853
 20
72.8625
 30
0
 40
2.5
 41
3.333333333333333
 71
    5
 72
    1
  1
40
  7
STANDARD
210
0
220
0
230
1
 50
330.000687256385
 73
    2
 44
1
  0
ENDBLK
  5
D6
330
D4
100
AcDbEntity
  8
0
100
AcDbBlockEnd
  0
BLOCK
  5
D8
330
D7
100
AcDbEntity
  8
0
100
AcDbBlockBegin
  2
*D23
 70
    1
 10
0
 20
0
  3
*D23
  1

  0
LINE
  5
19C
100
AcDbEntity
  8
Dimension029
  6
ByBlock
 62
    0
370
   -2
100
AcDbLine
 10
262.869
 20
97.9006
 11
262.869
 21
107.903
  0
SOLID
  5
19D
100
AcDbEntity
  8
Dimension029
  6
ByBlock
 62
    0
370
   -2
100
AcDbTrace
 10
262.869
 20
97.9006
 30
0
 11
262.4527153422272
 21
100.4006
 31
0
 12
263.2852846577729
 22
100.4006
 32
0
 13
263.2852846577729
 23
100.4006
 33
0
  0
SOLID
  5
19E
100
AcDbEntity
  8
Dimension029
  6
ByBlock
 62
    0
370
   -2
100
AcDbTrace
 10
262.869
 20
107.903
 30
0
 11
263.2852846577729
 21
105.403
 31
0
 12
262.4527153422272
 22
105.403
 32
0
 13
262.4527153422272
 23
105.403
 33
0
  0
MTEXT
  5
19F
100
AcDbEntity
  8
Dimension029
  6
CONTINUOUS
 62
    0
370
   -2
100
AcDbMText
 10
267.529
 20
120.229
 30
0
 40
2.5
 41
2.5
 71
    5
 72
    1
  1
10
  7
STANDARD
210
0
220
0
230
1
 50
90
 73
    2
 44
1
  0
LINE
  5
1A0
100
AcDbEntity
  8
Dimension029
  6
ByBlock
 62
    0
370
   -2
100
AcDbLine
 10
267.009
 20
97.9006
 11
261.619
 21
97.9006
  0
LINE
  5
1A1
100
AcDbEntity
  8
Dimension029
  6
ByBlock
 62
    0
370
   -2
100
AcDbLine
 10
263.12
 20
107.903
 11
261.619
 21
107.903
  0
ENDBLK
  5
D9
330
D7
100
AcDbEntity
  8
0
100
AcDbBlockEnd
  0
ENDSEC
  0
SECTION
  2
ENTITIES
  0
LINE
  5
1A2
100
AcDbEntity
  8
ProjItem007
  6
ByLayer
 62
  256
370
   -1
100
AcDbLine
 10
66.3253
 20
132.755
 11
36.3253
 21
132.755
  0
LINE
  5
1A3
100
AcDbEntity
  8
ProjItem007
  6
ByLayer
 62
  256
370
   -1
100
AcDbLine
 10
36.3253
 20
132.755
 11
46.3253
 21
150.076
  0
LINE
  5
1A4
100
AcDbEntity
  8
ProjItem007
  6
ByLayer
 62
  256
370
   -1
100
AcDbLine
 10
46.3253
 20
150.076
 11
58.3253
 21
150.076
  0
LINE
  5
1A5
100
AcDbEntity
  8
ProjItem007
  6
ByLayer
 62
  256
370
   -1
100
AcDbLine
 10
58.3253
 20
150.076
 11
63.8253
 21
165.076
  0
LINE
  5
1A6
100
AcDbEntity
  8
ProjItem007
  6
ByLayer
 62
  256
370
   -1
100
AcDbLine
 10
63.8253
 20
165.076
 11
78.8253
 21
165.076
  0
LINE
  5
1A7
100
AcDbEntity
  8
ProjItem007
  6
ByLayer
 62
  256
370
   -1
100
AcDbLine
 10
78.8253
 20
165.076
 11
84.3253
 21
150.076
  0
LINE
  5
1A8
100
AcDbEntity
  8
ProjItem007
  6
ByLayer
 62
  256
370
   -1
100
AcDbLine
 10
84.3253
 20
150.076
 11
96.3253
 21
150.076
  0
LINE
  5
1A9
100
AcDbEntity
  8
ProjItem007
  6
ByLayer
 62
  256
370
   -1
100
AcDbLine
 10
96.3253
 20
150.076
 11
96.3253
 21
132.755
  0
LINE
  5
1AA
100
AcDbEntity
  8
ProjItem007
  6
ByLayer
 62
  256
370
   -1
100
AcDbLine
 10
96.3253
 20
132.755
 11
76.3253
 21
132.755
  0
LINE
  5
1AB
100
AcDbEntity
  8
ProjItem007
  6
ByLayer
 62
  256
370
   -1
100
AcDbLine
 10
76.3253
 20
132.755
 11
76.3253
 21
142.755
  0
LINE
  5
1AC
100
AcDbEntity
  8
ProjItem007
  6
ByLayer
 62
  256
370
   -1
100
AcDbLine
 10
76.3253
 20
142.755
 11
66.3253
 21
142.755
  0
LINE
  5
1AD
100
AcDbEntity
  8
ProjItem007
  6
ByLayer
 62
  256
370
   -1
100
AcDbLine
 10
66.3253
 20
142.755
 11
66.3253
 21
132.755
  0
CIRCLE
  5
1AE
100
AcDbEntity
  8
ProjItem007
  6
ByLayer
 62
  256
370
   -1
100
AcDbCircle
 10
71.3253
 20
157.755
 40
3
  0
LINE
  5
1AF
100
AcDbEntity
  8
ProjItem008
  6
ByLayer
 62
  256
370
   -1
100
AcDbLine
 10
116.681
 20
132.755
 11
156.681
 21
132.755
  0
LINE
  5
1B0
100
AcDbEntity
  8
ProjItem008
  6
ByLayer
 62
  256
370
   -1
100
AcDbLine
 10
116.681
 20
150.076
 11
156.681
 21
150.076
  0
LINE
  5
1B1
100
AcDbEntity
  8
ProjItem008
  6
ByLayer
 62
  256
370
   -1
100
AcDbLine
 10
116.681
 20
132.755
 11
116.681
 21
150.076
  0
LINE
  5
1B2
100
AcDbEntity
  8
ProjItem008
  6
ByLayer
 62
  256
370
   -1
100
AcDbLine
 10
156.681
 20
132.755
 11
156.681
 21
150.076
  0
LINE
  5
1B3
100
AcDbEntity
  8
ProjItem008
  6
ByLayer
 62
  256
370
   -1
100
AcDbLine
 10
116.681
 20
165.076
 11
156.681
 21
165.076
  0
LINE
  5
1B4
100
AcDbEntity
  8
ProjItem008
  6
ByLayer
 62
  256
370
   -1
100
AcDbLine
 10
116.681
 20
150.076
 11
116.681
 21
165.076
  0
LINE
  5
1B5
100
AcDbEntity
  8
ProjItem008
  6
ByLayer
 62
  256
370
   -1
100
AcDbLine
 10
156.681
 20
150.076
 11
156.681
 21
165.076
  0
LINE
  5
1B6
100
AcDbEntity
  8
ProjItem009
  6
ByLayer
 62
  256
370
   -1
100
AcDbLine
 10
36.3253
 20
108.959
 11
36.3253
 21
68.95869999999999
  0
LINE
  5
1B7
100
AcDbEntity
  8
ProjItem009
  6
ByLayer
 62
  256
370
   -1
100
AcDbLine
 10
46.3253
 20
108.959
 11
46.3253
 21
68.95869999999999
  0
LINE
  5
1B8
100
AcDbEntity
  8
ProjItem009
  6
ByLayer
 62
  256
370
   -1
100
AcDbLine
 10
36.3253
 20
108.959
 11
46.3253
 21
108.959
  0
LINE
  5
1B9
100
AcDbEntity
  8
ProjItem009
  6
ByLayer
 62
  256
370
   -1
100
AcDbLine
 10
36.3253
 20
68.95869999999999
 11
46.3253
 21
68.95869999999999
  0
LINE
  5
1BA
100
AcDbEntity
  8
ProjItem009
  6
ByLayer
 62
  256
370
   -1
100
AcDbLine
 10
58.3253
 20
108.959
 11
58.3253
 21
68.95869999999999
  0
LINE
  5
1BB
100
AcDbEntity
  8
ProjItem009
  6
ByLayer
 62
  256
370
   -1
100
AcDbLine
 10
46.3253
 20
108.959
 11
58.3253
 21
108.959
  0
LINE
  5
1BC
100
AcDbEntity
  8
ProjItem009
  6
ByLayer
 62
  256
370
   -1
100
AcDbLine
 10
46.3253
 20
68.95869999999999
 11
58.3253
 21
68.95869999999999
  0
LINE
  5
1BD
100
AcDbEntity
  8
ProjItem009
  6
ByLayer
 62
  256
370
   -1
100
AcDbLine
 10
63.8253
 20
108.959
 11
63.8253
 21
68.95869999999999
  0
LINE
  5
1BE
100
AcDbEntity
  8
ProjItem009
  6
ByLayer
 62
  256
370
   -1
100
AcDbLine
 10
58.3253
 20
108.959
 11
63.8253
 21
108.959
  0
LINE
  5
1BF
100
AcDbEntity
  8
ProjItem009
  6
ByLayer
 62
  256
370
   -1
100
AcDbLine
 10
58.3253
 20
68.95869999999999
 11
63.8253
 21
68.95869999999999
  0
LINE
  5
1C0
100
AcDbEntity
  8
ProjItem009
  6
ByLayer
 62
  256
370
   -1
100
AcDbLine
 10
78.8253
 20
108.959
 11
78.8253
 21
68.95869999999999
  0
LINE
  5
1C1
100
AcDbEntity
  8
ProjItem009
  6
ByLayer
 62
  256
370
   -1
100
AcDbLine
 10
63.8253
 20
108.959
 11
78.8253
 21
108.959
  0
LINE
  5
1C2
100
AcDbEntity
  8
ProjItem009
  6
ByLayer
 62
  256
370
   -1
100
AcDbLine
 10
63.8253
 20
68.95869999999999
 11
78.8253
 21
68.95869999999999
  0
LINE
  5
1C3
100
AcDbEntity
  8
ProjItem009
  6
ByLayer
 62
  256
370
   -1
100
AcDbLine
 10
84.3253
 20
108.959
 11
84.3253
 21
68.95869999999999
  0
LINE
  5
1C4
100
AcDbEntity
  8
ProjItem009
  6
ByLayer
 62
  256
370
   -1
100
AcDbLine
 10
78.8253
 20
108.959
 11
84.3253
 21
108.959
  0
LINE
  5
1C5
100
AcDbEntity
  8
ProjItem009
  6
ByLayer
 62
  256
370
   -1
100
AcDbLine
 10
78.8253
 20
68.95869999999999
 11
84.3253
 21
68.95869999999999
  0
LINE
  5
1C6
100
AcDbEntity
  8
ProjItem009
  6
ByLayer
 62
  256
370
   -1
100
AcDbLine
 10
96.3253
 20
108.959
 11
96.3253
 21
68.95869999999999
  0
LINE
  5
1C7
100
AcDbEntity
  8
ProjItem009
  6
ByLayer
 62
  256
370
   -1
100
AcDbLine
 10
84.3253
 20
108.959
 11
96.3253
 21
108.959
  0
LINE
  5
1C8
100
AcDbEntity
  8
ProjItem009
  6
ByLayer
 62
  256
370
   -1
100
AcDbLine
 10
84.3253
 20
68.95869999999999
 11
96.3253
 21
68.95869999999999
  0
LINE
  5
1C9
100
AcDbEntity
  8
ProjItem010
  6
ByLayer
 62
  256
370
   -1
100
AcDbLine
 10
205.408
 20
80.49250000000001
 11
233.693
 21
64.1626
  0
LINE
  5
1CA
100
AcDbEntity
  8
ProjItem010
  6
ByLayer
 62
  256
370
   -1
100
AcDbLine
 10
254.906
 20
76.41
 11
233.693
 21
64.1626
  0
LINE
  5
1CB
100
AcDbEntity
  8
ProjItem010
  6
ByLayer
 62
  256
370
   -1
100
AcDbLine
 10
212.479
 20
98.7171
 11
240.764
 21
82.38720000000001
  0
LINE
  5
1CC
100
AcDbEntity
  8
ProjItem010
  6
ByLayer
 62
  256
370
   -1
100
AcDbLine
 10
205.408
 20
80.49250000000001
 11
212.479
 21
98.7171
  0
LINE
  5
1CD
100
AcDbEntity
  8
ProjItem010
  6
ByLayer
 62
  256
370
   -1
100
AcDbLine
 10
233.693
 20
64.1626
 11
240.764
 21
82.38720000000001
  0
LINE
  5
1CE
100
AcDbEntity
  8
ProjItem010
  6
ByLayer
 62
  256
370
   -1
100
AcDbLine
 10
220.965
 20
103.616
 11
249.249
 21
87.28619999999999
  0
LINE
  5
1CF
100
AcDbEntity
  8
ProjItem010
  6
ByLayer
 62
  256
370
   -1
100
AcDbLine
 10
212.479
 20
98.7171
 11
220.965
 21
103.616
  0
LINE
  5
1D0
100
AcDbEntity
  8
ProjItem010
  6
ByLayer
 62
  256
370
   -1
100
AcDbLine
 10
240.764
 20
82.38720000000001
 11
249.249
 21
87.28619999999999
  0
LINE
  5
1D1
100
AcDbEntity
  8
ProjItem010
  6
ByLayer
 62
  256
370
   -1
100
AcDbLine
 10
224.854
 20
118.109
 11
253.138
 21
101.779
  0
LINE
  5
1D2
100
AcDbEntity
  8
ProjItem010
  6
ByLayer
 62
  256
370
   -1
100
AcDbLine
 10
220.965
 20
103.616
 11
224.854
 21
118.109
  0
LINE
  5
1D3
100
AcDbEntity
  8
ProjItem010
  6
ByLayer
 62
  256
370
   -1
100
AcDbLine
 10
249.249
 20
87.28619999999999
 11
253.138
 21
101.779
  0
LINE
  5
1D4
100
AcDbEntity
  8
ProjItem010
  6
ByLayer
 62
  256
370
   -1
100
AcDbLine
 10
235.46
 20
124.233
 11
263.745
 21
107.903
  0
LINE
  5
1D5
100
AcDbEntity
  8
ProjItem010
  6
ByLayer
 62
  256
370
   -1
100
AcDbLine
 10
224.854
 20
118.109
 11
235.46
 21
124.233
  0
LINE
  5
1D6
100
AcDbEntity
  8
ProjItem010
  6
ByLayer
 62
  256
370
   -1
100
AcDbLine
 10
253.138
 20
101.779
 11
263.745
 21
107.903
  0
LINE
  5
1D7
100
AcDbEntity
  8
ProjItem010
  6
ByLayer
 62
  256
370
   -1
100
AcDbLine
 10
263.745
 20
107.903
 11
267.634
 21
97.9006
  0
LINE
  5
1D8
100
AcDbEntity
  8
ProjItem010
  6
ByLayer
 62
  256
370
   -1
100
AcDbLine
 10
247.835
 20
119.13
 11
276.119
 21
102.8
  0
LINE
  5
1D9
100
AcDbEntity
  8
ProjItem010
  6
ByLayer
 62
  256
370
   -1
100
AcDbLine
 10
246.067
 20
118.109
 11
247.835
 21
119.13
  0
LINE
  5
1DA
100
AcDbEntity
  8
ProjItem010
  6
ByLayer
 62
  256
370
   -1
100
AcDbLine
 10
267.634
 20
97.9006
 11
276.119
 21
102.8
  0
LINE
  5
1DB
100
AcDbEntity
  8
ProjItem010
  6
ByLayer
 62
  256
370
   -1
100
AcDbLine
 10
276.119
 20
102.8
 11
276.119
 21
88.6575
  0
LINE
  5
1DC
100
AcDbEntity
  8
ProjItem010
  6
ByLayer
 62
  256
370
   -1
100
AcDbLine
 10
254.906
 20
84.575
 11
261.977
 21
80.49250000000001
  0
LINE
  5
1DD
100
AcDbEntity
  8
ProjItem010
  6
ByLayer
 62
  256
370
   -1
100
AcDbLine
 10
276.119
 20
88.6575
 11
261.977
 21
80.49250000000001
  0
LINE
  5
1DE
100
AcDbEntity
  8
ProjItem010
  6
ByLayer
 62
  256
370
   -1
100
AcDbLine
 10
261.977
 20
80.49250000000001
 11
261.977
 21
88.6575
  0
LINE
  5
1DF
100
AcDbEntity
  8
ProjItem010
  6
ByLayer
 62
  256
370
   -1
100
AcDbLine
 10
261.977
 20
88.6575
 11
254.906
 21
84.575
  0
LINE
  5
1E0
100
AcDbEntity
  8
ProjItem010
  6
ByLayer
 62
  256
370
   -1
100
AcDbLine
 10
254.906
 20
84.575
 11
254.906
 21
76.41
  0
ELLIPSE
  5
1E1
100
AcDbEntity
  8
ProjItem010
  6
ByLayer
 62
  256
370
   -1
100
AcDbEllipse
 10
258.441
 20
98.86369999999999
 30
0
 11
-1.5
 21
-2.59808
 31
0
 40
0.57735
 41
2.35619
 42
3.14159
  0
ELLIPSE
  5
1E2
100
AcDbEntity
  8
ProjItem010
  6
ByLayer
 62
  256
370
   -1
100
AcDbEllipse
 10
258.441
 20
98.86369999999999
 30
0
 11
-1.5
 21
-2.59808
 31
0
 40
0.57735
 41
3.14159
 42
8.88178e-16
  0
ELLIPSE
  5
1E3
100
AcDbEntity
  8
ProjItem010
  6
ByLayer
 62
  256
370
   -1
100
AcDbEllipse
 10
258.441
 20
98.86369999999999
 30
0
 11
-1.5
 21
-2.59808
 31
0
 40
0.57735
 41
8.88178e-16
 42
2.35619
  0
LINE
  5
1E4
100
AcDbEntity
  8
ProjItem010
  6
ByLayer
 62
  256
370
   -1
100
AcDbLine
 10
258.441
 20
101.313
 11
260.563
 21
100.088
  0
DIMENSION
  5
1E5
100
AcDbEntity
  8
Dimension
  6
ByLayer
 62
  256
370
   -1
100
AcDbDimension
  2
*D1
 10
51.3253
 20
127.755
 30
0
 11
51.3253
 21
132.755
 31
0
 70
   32
  1
30
 71
    5
 72
    0
  3
STANDARD
 53
0
210
0
220
0
230
1
100
AcDbAlignedDimension
 13
36.3253
 23
132.755
 33
0
 14
66.3253
 24
132.755
 34
0
100
AcDbRotatedDimension
  0
DIMENSION
  5
1E6
100
AcDbEntity
  8
Dimension001
  6
ByLayer
 62
  256
370
   -1
100
AcDbDimension
  2
*D2
 10
72.48180000000001
 20
127.755
 30
0
 11
72.48180000000001
 21
132.755
 31
0
 70
   32
  1
10
 71
    5
 72
    0
  3
STANDARD
 53
0
210
0
220
0
230
1
100
AcDbAlignedDimension
 13
66.3253
 23
132.755
 33
0
 14
76.3253
 24
132.755
 34
0
100
AcDbRotatedDimension
  0
DIMENSION
  5
1E7
100
AcDbEntity
  8
Dimension002
  6
ByLayer
 62
  256
370
   -1
100
AcDbDimension
  2
*D3
 10
85.89100000000001
 20
126.669
 30
0
 11
85.89100000000001
 21
131.669
 31
0
 70
   32
  1
20
 71
    5
 72
    0
  3
STANDARD
 53
0
210
0
220
0
230
1
100
AcDbAlignedDimension
 13
76.3253
 23
132.755
 33
0
 14
96.3253
 24
132.755
 34
0
100
AcDbRotatedDimension
  0
DIMENSION
  5
1E8
100
AcDbEntity
  8
Dimension003
  6
ByLayer
 62
  256
370
   -1
100
AcDbDimension
  2
*D4
 10
65.69880000000001
 20
121.992
 30
0
 11
65.69880000000001
 21
126.992
 31
0
 70
   32
  1
60
 71
    5
 72
    0
  3
STANDARD
 53
0
210
0
220
0
230
1
100
AcDbAlignedDimension
 13
36.3253
 23
132.755
 33
0
 14
96.3253
 24
132.755
 34
0
100
AcDbRotatedDimension
  0
DIMENSION
  5
1E9
100
AcDbEntity
  8
Dimension004
  6
ByLayer
 62
  256
370
   -1
100
AcDbDimension
  2
*D5
 10
46.3253
 20
132.755
 30
0
 11
47.5811
 21
141.673
 31
0
 70
   34
  1
60%%D
 71
    5
 72
    0
  3
STANDARD
 53
0
210
0
220
0
230
1
100
AcDb2LineAngularDimension
 13
36.3253
 23
132.755
 33
0
 14
46.3253
 24
150.076
 34
0
 15
36.3253
 25
132.755
 35
0
 16
52.5811
 26
141.673
 36
0
  0
DIMENSION
  5
1EA
100
AcDbEntity
  8
Dimension005
  6
ByLayer
 62
  256
370
   -1
100
AcDbDimension
  2
*D6
 10
38.24389951270376
 20
154.7416662359542
 30
0
 11
36.6393
 21
146.962
 31
0
 70
   33
  1
20
 71
    5
 72
    0
  3
STANDARD
 53
0
210
0
220
0
230
1
100
AcDbAlignedDimension
 13
36.3253
 23
132.755
 33
0
 14
46.3253
 24
150.076
 34
0
  0
DIMENSION
  5
1EB
100
AcDbEntity
  8
Dimension006
  6
ByLayer
 62
  256
370
   -1
100
AcDbDimension
  2
*D7
 10
89.92529999999999
 20
151.527
 30
0
 11
89.92529999999999
 21
156.527
 31
0
 70
   32
  1
12
 71
    5
 72
    0
  3
STANDARD
 53
0
210
0
220
0
230
1
100
AcDbAlignedDimension
 13
84.3253
 23
150.076
 33
0
 14
96.3253
 24
150.076
 34
0
100
AcDbRotatedDimension
  0
DIMENSION
  5
1EC
100
AcDbEntity
  8
Dimension007
  6
ByLayer
 62
  256
370
   -1
100
AcDbDimension
  2
*D8
 10
52.5383
 20
152.966
 30
0
 11
52.5383
 21
157.966
 31
0
 70
   32
  1
12
 71
    5
 72
    0
  3
STANDARD
 53
0
210
0
220
0
230
1
100
AcDbAlignedDimension
 13
46.3253
 23
150.076
 33
0
 14
58.3253
 24
150.076
 34
0
100
AcDbRotatedDimension
  0
DIMENSION
  5
1ED
100
AcDbEntity
  8
Dimension008
  6
ByLayer
 62
  256
370
   -1
100
AcDbDimension
  2
*D9
 10
73.0294
 20
169.67
 30
0
 11
73.0294
 21
174.67
 31
0
 70
   32
  1
15
 71
    5
 72
    0
  3
STANDARD
 53
0
210
0
220
0
230
1
100
AcDbAlignedDimension
 13
63.8253
 23
165.076
 33
0
 14
78.8253
 24
165.076
 34
0
100
AcDbRotatedDimension
  0
DIMENSION
  5
1EE
100
AcDbEntity
  8
Dimension009
  6
ByLayer
 62
  256
370
   -1
100
AcDbDimension
  2
*D10
 10
72.4432
 20
137.292
 30
0
 11
63.9823
 21
155.731
 31
0
 70
   35
  1
%%C6
 71
    5
 72
    0
  3
STANDARD
 53
0
210
0
220
0
230
1
100
AcDbDiametricDimension
 15
70.2075
 25
142.86
 35
0
 40
0
  0
DIMENSION
  5
1EF
100
AcDbEntity
  8
Dimension010
  6
ByLayer
 62
  256
370
   -1
100
AcDbDimension
  2
*D11
 10
75.3724
 20
139.042
 30
0
 11
80.3724
 21
139.042
 31
0
 70
   32
  1
10
 71
    5
 72
    0
  3
STANDARD
 53
0
210
0
220
0
230
1
100
AcDbAlignedDimension
 13
76.3253
 23
132.755
 33
0
 14
76.3253
 24
142.755
 34
0
 50
90
100
AcDbRotatedDimension
  0
DIMENSION
  5
1F0
100
AcDbEntity
  8
Dimension011
  6
ByLayer
 62
  256
370
   -1
100
AcDbDimension
  2
*D12
 10
136.338
 20
123.774
 30
0
 11
136.338
 21
128.774
 31
0
 70
   32
  1
40
 71
    5
 72
    0
  3
STANDARD
 53
0
210
0
220
0
230
1
100
AcDbAlignedDimension
 13
116.681
 23
132.755
 33
0
 14
156.681
 24
132.755
 34
0
100
AcDbRotatedDimension
  0
DIMENSION
  5
1F1
100
AcDbEntity
  8
Dimension012
  6
ByLayer
 62
  256
370
   -1
100
AcDbDimension
  2
*D13
 10
169.349
 20
158.863
 30
0
 11
164.349
 21
158.863
 31
0
 70
   32
  1
15
 71
    5
 72
    0
  3
STANDARD
 53
0
210
0
220
0
230
1
100
AcDbAlignedDimension
 13
156.681
 23
165.076
 33
0
 14
156.681
 24
150.076
 34
0
 50
90
100
AcDbRotatedDimension
  0
DIMENSION
  5
1F2
100
AcDbEntity
  8
Dimension020
  6
ByLayer
 62
  256
370
   -1
100
AcDbDimension
  2
*D14
 10
232.0003016576752
 20
61.23067925261903
 30
0
 11
216.853
 21
72.8625
 31
0
 70
   33
  1
40
 71
    5
 72
    0
  3
STANDARD
 53
0
210
0
220
0
230
1
100
AcDbAlignedDimension
 13
205.408
 23
80.49250000000001
 33
0
 14
233.693
 24
64.1626
 34
0
  0
DIMENSION
  5
1F3
100
AcDbEntity
  8
Dimension021
  6
ByLayer
 62
  256
370
   -1
100
AcDbDimension
  2
*D15
 10
202.883097433412
 20
102.4402339534664
 30
0
 11
204.159
 21
95.5217
 31
0
 70
   33
  1
30
 71
    5
 72
    0
  3
STANDARD
 53
0
210
0
220
0
230
1
100
AcDbAlignedDimension
 13
205.408
 23
80.49250000000001
 33
0
 14
212.479
 24
98.7171
 34
0
  0
DIMENSION
  5
1F4
100
AcDbEntity
  8
Dimension022
  6
ByLayer
 62
  256
370
   -1
100
AcDbDimension
  2
*D16
 10
259.006366758305
 20
69.30799630583439
 30
0
 11
247.799
 21
65.72410000000001
 31
0
 70
   33
  1
24,49
 71
    5
 72
    0
  3
STANDARD
 53
0
210
0
220
0
230
1
100
AcDbAlignedDimension
 13
233.693
 23
64.1626
 33
0
 14
254.906
 24
76.41
 34
0
  0
DIMENSION
  5
1F5
100
AcDbEntity
  8
Dimension023
  6
ByLayer
 62
  256
370
   -1
100
AcDbDimension
  2
*D17
 10
266.0773638872414
 20
73.39055926596849
 30
0
 11
261.941
 21
73.8891
 31
0
 70
   33
  1
8,16
 71
    5
 72
    0
  3
STANDARD
 53
0
210
0
220
0
230
1
100
AcDbAlignedDimension
 13
254.906
 23
76.41
 33
0
 14
261.977
 24
80.49250000000001
 34
0
  0
DIMENSION
  5
1F6
100
AcDbEntity
  8
Dimension024
  6
ByLayer
 62
  256
370
   -1
100
AcDbDimension
  2
*D18
 10
280.219510540609
 20
81.55530525838437
 30
0
 11
272.548
 21
80.0128
 31
0
 70
   33
  1
16,33
 71
    5
 72
    0
  3
STANDARD
 53
0
210
0
220
0
230
1
100
AcDbAlignedDimension
 13
261.977
 23
80.49250000000001
 33
0
 14
276.119
 24
88.6575
 34
0
  0
DIMENSION
  5
1F7
100
AcDbEntity
  8
Dimension025
  6
ByLayer
 62
  256
370
   -1
100
AcDbDimension
  2
*D19
 10
252.225
 20
81.2413
 30
0
 11
247.225
 21
81.2413
 31
0
 70
   32
  1
8,16
 71
    5
 72
    0
  3
STANDARD
 53
0
210
0
220
0
230
1
100
AcDbAlignedDimension
 13
254.906
 23
84.575
 33
0
 14
254.906
 24
76.41
 34
0
 50
90
100
AcDbRotatedDimension
  0
DIMENSION
  5
1F8
100
AcDbEntity
  8
Dimension026
  6
ByLayer
 62
  256
370
   -1
100
AcDbDimension
  2
*D20
 10
218.3607077159047
 20
108.1272217687303
 30
0
 11
213.339
 21
108.115
 31
0
 70
   33
  1
12
 71
    5
 72
    0
  3
STANDARD
 53
0
210
0
220
0
230
1
100
AcDbAlignedDimension
 13
212.479
 23
98.7171
 33
0
 14
220.965
 24
103.616
 34
0
  0
DIMENSION
  5
1F9
100
AcDbEntity
  8
Dimension027
  6
ByLayer
 62
  256
370
   -1
100
AcDbDimension
  2
*D21
 10
233.1914867781192
 20
128.1617804100699
 30
0
 11
225.957
 21
126.871
 31
0
 70
   33
  1
15
 71
    5
 72
    0
  3
STANDARD
 53
0
210
0
220
0
230
1
100
AcDbAlignedDimension
 13
224.854
 23
118.109
 33
0
 14
235.46
 24
124.233
 34
0
  0
DIMENSION
  5
1FA
100
AcDbEntity
  8
Dimension028
  6
ByLayer
 62
  256
370
   -1
100
AcDbDimension
  2
*D22
 10
278.433848266332
 20
98.7910422623532
 30
0
 11
283.154
 21
104.403
 31
0
 70
   33
  1
30
 71
    5
 72
    0
  3
STANDARD
 53
0
210
0
220
0
230
1
100
AcDbAlignedDimension
 13
267.634
 23
97.9006
 33
0
 14
276.119
 24
102.8
 34
0
  0
DIMENSION
  5
1FB
100
AcDbEntity
  8
Dimension029
  6
ByLayer
 62
  256
370
   -1
100
AcDbDimension
  2
*D23
 10
262.869
 20
122.041
 30
0
 11
267.529
 21
120.229
 31
0
 70
   32
  1
10
 71
    5
 72
    0
  3
STANDARD
 53
0
210
0
220
0
230
1
100
AcDbAlignedDimension
 13
267.634
 23
97.9006
 33
0
 14
263.745
 24
107.903
 34
0
 50
90
100
AcDbRotatedDimension
  0
DIMENSION
  5
1FC
100
AcDbEntity
  8
Dimension038
  6
ByLayer
 62
  256
370
   -1
100
AcDbDimension
  2
*D24
 10
246.887
 20
71.78060000000001
 30
0
 11
232.834
 21
78.66800000000001
 31
0
 70
   34
  1
120%%D
 71
    5
 72
    0
  3
STANDARD
 53
0
210
0
220
0
230
1
100
AcDb2LineAngularDimension
 13
233.693
 23
64.1626
 33
0
 14
240.764
 24
82.38720000000001
 34
0
 15
233.693
 25
64.1626
 35
0
 16
237.164
 26
81.16800000000001
 36
0
  0
DIMENSION
  5
1FD
100
AcDbEntity
  8
Dimension039
  6
ByLayer
 62
  256
370
   -1
100
AcDbDimension
  2
*D25
 10
260.658
 20
88.7032
 30
0
 11
252.46
 21
92.4134
 31
0
 70
   35
  1
%%C6
 71
    5
 72
    0
  3
STANDARD
 53
0
210
0
220
0
230
1
100
AcDbDiametricDimension
 15
256.225
 25
90.3599
 35
0
 40
0
  0
DIMENSION
  5
1FE
100
AcDbEntity
  8
Dimension040
  6
ByLayer
 62
  256
370
   -1
100
AcDbDimension
  2
*D26
 10
41.3253
 20
63.9587
 30
0
 11
41.3253
 21
68.95869999999999
 31
0
 70
   32
  1
10
 71
    5
 72
    0
  3
STANDARD
 53
0
210
0
220
0
230
1
100
AcDbAlignedDimension
 13
36.3253
 23
68.95869999999999
 33
0
 14
46.3253
 24
68.95869999999999
 34
0
100
AcDbRotatedDimension
  0
DIMENSION
  5
1FF
100
AcDbEntity
  8
Dimension041
  6
ByLayer
 62
  256
370
   -1
100
AcDbDimension
  2
*D27
 10
52.3253
 20
63.9587
 30
0
 11
52.3253
 21
68.95869999999999
 31
0
 70
   32
  1
12
 71
    5
 72
    0
  3
STANDARD
 53
0
210
0
220
0
230
1
100
AcDbAlignedDimension
 13
46.3253
 23
68.95869999999999
 33
0
 14
58.3253
 24
68.95869999999999
 34
0
100
AcDbRotatedDimension
  0
DIMENSION
  5
200
100
AcDbEntity
  8
Dimension042
  6
ByLayer
 62
  256
370
   -1
100
AcDbDimension
  2
*D28
 10
61.0753
 20
63.9587
 30
0
 11
61.0753
 21
68.95869999999999
 31
0
 70
   32
  1
5,5
 71
    5
 72
    0
  3
STANDARD
 53
0
210
0
220
0
230
1
100
AcDbAlignedDimension
 13
58.3253
 23
68.95869999999999
 33
0
 14
63.8253
 24
68.95869999999999
 34
0
100
AcDbRotatedDimension
  0
DIMENSION
  5
201
100
AcDbEntity
  8
Dimension043
  6
ByLayer
 62
  256
370
   -1
100
AcDbDimension
  2
*D29
 10
71.3253
 20
63.9587
 30
0
 11
71.3253
 21
68.95869999999999
 31
0
 70
   32
  1
15
 71
    5
 72
    0
  3
STANDARD
 53
0
210
0
220
0
230
1
100
AcDbAlignedDimension
 13
63.8253
 23
68.95869999999999
 33
0
 14
78.8253
 24
68.95869999999999
 34
0
100
AcDbRotatedDimension
  0
DIMENSION
  5
202
100
AcDbEntity
  8
Dimension044
  6
ByLayer
 62
  256
370
   -1
100
AcDbDimension
  2
*D30
 10
81.5753
 20
61.6132
 30
0
 11
81.5753
 21
66.61320000000001
 31
0
 70
   32
  1
5,5
 71
    5
 72
    0
  3
STANDARD
 53
0
210
0
220
0
230
1
100
AcDbAlignedDimension
 13
78.8253
 23
68.95869999999999
 33
0
 14
84.3253
 24
68.95869999999999
 34
0
100
AcDbRotatedDimension
  0
DIMENSION
  5
203
100
AcDbEntity
  8
Dimension045
  6
ByLayer
 62
  256
370
   -1
100
AcDbDimension
  2
*D31
 10
90.3253
 20
61.7869
 30
0
 11
90.3253
 21
66.7869
 31
0
 70
   32
  1
12
 71
    5
 72
    0
  3
STANDARD
 53
0
210
0
220
0
230
1
100
AcDbAlignedDimension
 13
84.3253
 23
68.95869999999999
 33
0
 14
96.3253
 24
68.95869999999999
 34
0
100
AcDbRotatedDimension
  0
DIMENSION
  5
204
100
AcDbEntity
  8
Dimension046
  6
ByLayer
 62
  256
370
   -1
100
AcDbDimension
  2
*D32
 10
34.1312
 20
89.43089999999999
 30
0
 11
29.1312
 21
89.43089999999999
 31
0
 70
   32
  1
40
 71
    5
 72
    0
  3
STANDARD
 53
0
210
0
220
0
230
1
100
AcDbAlignedDimension
 13
36.3253
 23
108.959
 33
0
 14
36.3253
 24
68.95869999999999
 34
0
 50
90
100
AcDbRotatedDimension
  0
DIMENSION
  5
205
100
AcDbEntity
  8
Dimension047
  6
ByLayer
 62
  256
370
   -1
100
AcDbDimension
  2
*D33
 10
94.8165
 20
146.931
 30
0
 11
99.71939999999999
 21
147.912
 31
0
 70
   32
  1
25
 71
    5
 72
    0
  3
STANDARD
 53
0
210
0
220
0
230
1
100
AcDbAlignedDimension
 13
66.3253
 23
132.755
 33
0
 14
71.3253
 24
157.755
 34
0
 50
90
100
AcDbRotatedDimension
  0
DIMENSION
  5
206
100
AcDbEntity
  8
Dimension048
  6
ByLayer
 62
  256
370
   -1
100
AcDbDimension
  2
*D34
 10
49.5975
 20
117.367
 30
0
 11
52.5037
 21
121.436
 31
0
 70
   32
  1
35
 71
    5
 72
    0
  3
STANDARD
 53
0
210
0
220
0
230
1
100
AcDbAlignedDimension
 13
36.3253
 23
132.755
 33
0
 14
71.3253
 24
157.755
 34
0
100
AcDbRotatedDimension
  0
TEXT
  5
207
100
AcDbEntity
  8
Annotation
  6
ByLayer
 62
  256
370
   -1
100
AcDbText
 10
256.754
 20
173.858
 30
0
 40
5
  1
Insertando anotaciones
 50
0
 41
1
 51
0
  7
standard
 71
    0
 72
    1
 11
256.754
 21
173.858
 31
0
210
0
220
0
230
1
100
AcDbText
  0
ENDSEC
  0
SECTION
  2
OBJECTS
  0
DICTIONARY
  5
C
330
0
100
AcDbDictionary
281
    1
  3
ACAD_GROUP
350
D
  0
DICTIONARY
  5
D
330
C
100
AcDbDictionary
281
    1
  0
ENDSEC
  0
EOF
