<?xml version="1.0" encoding="UTF-8" standalone="no"?>
<svg
   xmlns:freecad="http://www.freecadweb.org/wiki/index.php?title=Svg_Namespace"
   xmlns:dc="http://purl.org/dc/elements/1.1/"
   xmlns:cc="http://creativecommons.org/ns#"
   xmlns:rdf="http://www.w3.org/1999/02/22-rdf-syntax-ns#"
   xmlns:svg="http://www.w3.org/2000/svg"
   xmlns="http://www.w3.org/2000/svg"
   xmlns:sodipodi="http://sodipodi.sourceforge.net/DTD/sodipodi-0.dtd"
   xmlns:inkscape="http://www.inkscape.org/namespaces/inkscape"
   version="1.1"
   width="297mm"
   height="210mm"
   viewBox="0 0 297 210"
   id="svg99"
   sodipodi:docname="A4_Landscape_ISO7200TD.svg"
   inkscape:version="0.92.3 (2405546, 2018-03-11)">
  <metadata
     id="metadata105">
    <rdf:RDF>
      <cc:Work
         rdf:about="">
        <dc:format>image/svg+xml</dc:format>
        <dc:type
           rdf:resource="http://purl.org/dc/dcmitype/StillImage" />
      </cc:Work>
    </rdf:RDF>
  </metadata>
  <defs
     id="defs103" />
  <sodipodi:namedview
     pagecolor="#ffffff"
     bordercolor="#666666"
     borderopacity="1"
     objecttolerance="10"
     gridtolerance="10"
     guidetolerance="10"
     inkscape:pageopacity="0"
     inkscape:pageshadow="2"
     inkscape:window-width="1881"
     inkscape:window-height="1025"
     id="namedview101"
     showgrid="false"
     inkscape:zoom="3.0183639"
     inkscape:cx="932.24831"
     inkscape:cy="135.8842"
     inkscape:window-x="39"
     inkscape:window-y="27"
     inkscape:window-maximized="1"
     inkscape:current-layer="titleblock-text-non-editable" />
  <!-- Working space 10 10 287 200 -->
  <!-- Title block 107 162 287 200 -->
  <g
     id="g48">
    <rect
       id="drawing-border"
       style="fill:none;stroke:#000000;stroke-width:0.34999999;stroke-miterlimit:4"
       width="277"
       height="180"
       x="10"
       y="20" />
    <!-- width-20, height-20 -->
    <g
       transform="translate(87,-65)"
       id="g46">
      <!-- A4 Portrait based for other formats width-210, height-297 -->
      <!--        page       rect   translation
                     w    h    rw   rh   tx   ty
              A4-P  210  297  180  277    0    0
              A3-L  420  297  390  277  210    0
              A2-L  594  420  564  400  384  123
              A1-L  841  594  811  574  631  297
              A0-L 1189  841 1159  821  979  544
      -->
      <g
         id="titleblock-structure"
         style="fill:none;stroke:#000000;stroke-width:0.34999999;stroke-miterlimit:4">
        <rect
           width="180"
           height="38"
           x="20"
           y="227"
           id="rect3" />
        <path
           d="M 20,238 H 200"
           id="path5"
           inkscape:connector-curvature="0" />
        <path
           d="m 80,227 v 11"
           id="path7"
           inkscape:connector-curvature="0" />
        <path
           d="m 140,227 v 38"
           id="path9"
           inkscape:connector-curvature="0" />
        <path
           d="m 160,227 v 11"
           id="path11"
           inkscape:connector-curvature="0" />
        <path
           d="m 180,227 v 11"
           id="path13"
           inkscape:connector-curvature="0" />
        <path
           d="m 140,254 h 60"
           id="path15"
           inkscape:connector-curvature="0" />
        <path
           d="m 180,254 v 11"
           id="path17"
           inkscape:connector-curvature="0" />
      </g>
      <g
         id="titleblock-text-non-editable"
         style="font-size:3px;font-family:osifont;text-anchor:start;fill:#000000">
        <text
           x="21"
           y="230.5"
           id="text20">Dibujado por:</text>
        <text
           x="81"
           y="230.5"
           id="text22">Versión FreeCAD:</text>
        <text
           x="21"
           y="241.5"
           id="text24">Designación</text>
        <text
           x="141"
           y="230.5"
           id="text26">Formato:</text>
        <text
           x="161"
           y="230.5"
           id="text28">Hoja:</text>
        <text
           x="181"
           y="230.5"
           id="text30">Escala::</text>
        <text
           x="141"
           y="241.5"
           id="text32">Parte número</text>
        <text
           x="141"
           y="249.5"
           id="text34">Dibujo número:</text>
        <text
           x="141"
           y="257.5"
           id="text36">Fecha:</text>
        <text
           x="181"
           y="257.5"
           id="text38">Unidades:</text>
      </g>
      <!-- Set display:none to hide FreeCAD Logo -->
      <g
         style="display:inline;fill:none;fill-rule:evenodd;stroke:#000000;stroke-width:0.34999999"
         id="freecad-logo"
         transform="translate(128.5,254)">
        <path
           d="m 0.1524,0.15254 v 8.8549 h 1.9744 v -3.4652 h 1.396 v -1.3661 h -1.396 v -1.4745 h 3.4391 v -2.5441 z"
           id="path41"
           inkscape:connector-curvature="0" />
        <path
           d="M 7.7927,3.4504 7.28555,3.2744 6.80168,2.0378 6.04053,2.0778 5.69335,3.3565 5.20745,3.58919 3.99555,3.05904 3.48367,3.62786 4.14259,4.77636 3.96253,5.28203 2.72593,5.7659 l 0.044064,0.76263 1.2787,0.34718 0.23269,0.4859 -0.53421,1.2104 0.56882,0.51188 1.1485,-0.65891 0.50973,0.18155 0.4798,1.2351 0.7667,-0.04258 0.34311,-1.2802 0.4859,-0.23269 1.2145,0.5357 0.51188,-0.56882 -0.65891,-1.1485 0.17748,-0.51122 1.2351,-0.4798 L 10.491274,5.34831 9.211074,5.0052 8.978384,4.5193 9.510014,3.3033 8.941204,2.79146 Z M 7.2212,4.6748 7.45696,4.81159 7.66122,4.99678 7.82475,5.21779 7.94238,5.46351 8.01154,5.7284 8.023,5.99986 7.98379,6.27125 7.89431,6.52889 7.75197,6.76723 7.57233,6.9689 7.35132,7.13243 7.1056,7.25006 6.84071,7.31922 6.56776,7.33475 l -0.2719,-0.04 -0.2576,-0.089 -0.2383,-0.143 -0.2002,-0.183 -0.165,-0.217 -0.1177,-0.246 -0.0676,-0.269 -0.0156,-0.273 L 5.273066,5.60335 5.36255,5.34571 5.5034,5.11144 5.68453,4.9057 5.90554,4.74218 6.15126,4.62455 6.42021,4.55687 6.69168,4.54541 6.96307,4.58462 7.22071,4.6741 Z"
           id="path43"
           inkscape:connector-curvature="0" />
      </g>
    </g>
  </g>
  <g
     id="titleblock-text-editable"
     style="font-size:5px;font-family:osifont;text-anchor:start;fill:#000000">
    <text
       freecad:editable="AUTHOR_NAME"
       x="108"
       y="171"
       id="text52">
      <tspan
         id="tspan50">AUTHOR NAME</tspan>
    </text>
    <text
       freecad:editable="DRAWING_TITLE"
       x="168"
       y="171"
       id="text56">
      <tspan
         id="tspan54">DRAWING TITLE</tspan>
    </text>
    <text
       freecad:editable="FreeCAD_DRAWING"
       x="108"
       y="189"
       id="text64">
      <tspan
         id="tspan62">Designar</tspan>
    </text>
    <text
       freecad:editable="FC-SI"
       x="233"
       y="171"
       id="text72">
      <tspan
         id="tspan70">A4</tspan>
    </text>
    <text
       freecad:editable="FC-SH"
       x="251"
       y="171"
       id="text76">
      <tspan
         id="tspan74">X / Y</tspan>
    </text>
    <text
       freecad:editable="FC-SC"
       x="271"
       y="171"
       id="text80">
      <tspan
         id="tspan78">SCALE</tspan>
    </text>
    <text
       freecad:editable="PN"
       x="231"
       y="181"
       id="text84">
      <tspan
         id="tspan82">PN</tspan>
    </text>
    <text
       freecad:editable="DN"
       x="231"
       y="189"
       id="text88">
      <tspan
         id="tspan86">DN</tspan>
    </text>
    <text
       freecad:editable="FC-DATE"
       x="231"
       y="197"
       id="text92">
      <tspan
         id="tspan90">DD/MM/YYYY</tspan>
    </text>
    <text
       freecad:editable="FC-REV"
       x="269"
       y="197"
       id="text96">
      <tspan
         id="tspan94">REV A</tspan>
    </text>
  </g>
  <!-- DrawingContent -->
</svg>
